M48
; DRILL file {KiCad (5.1.9-0-10_14)} date Friday, February 12, 2021 at 10:42:36 AM
; FORMAT={-:-/ absolute / metric / decimal}
; #@! TF.CreationDate,2021-02-12T10:42:36+01:00
; #@! TF.GenerationSoftware,Kicad,Pcbnew,(5.1.9-0-10_14)
; #@! TF.FileFunction,Plated,1,2,PTH
FMAT,2
METRIC
T1C0.200
T2C0.300
T3C1.000
%
G90
G05
T1
X85.39Y-109.352
X85.812Y-117.993
X86.279Y-111.892
X88.565Y-109.225
X90.3Y-115.1
X90.724Y-109.098
X90.978Y-111.13
X91.613Y-108.209
X91.733Y-107.325
X95.042Y-108.209
X96.693Y-112.654
X97.582Y-112.4
X98.15Y-115.6
X98.344Y-112.908
T2
X87.114Y-112.527
X94.554Y-112.696
X95.15Y-116.05
X98.691Y-109.988
T3
X84.112Y-107.325
X84.112Y-109.865
X84.112Y-112.405
X84.112Y-114.945
X84.112Y-117.485
X84.112Y-120.025
X101.887Y-107.325
X101.887Y-109.865
X101.887Y-112.405
X101.887Y-114.945
X101.887Y-117.485
X101.887Y-120.025
T0
M30
