G04 #@! TF.GenerationSoftware,KiCad,Pcbnew,(5.1.9-0-10_14)*
G04 #@! TF.CreationDate,2021-02-12T10:42:39+01:00*
G04 #@! TF.ProjectId,l0_USBA,6c305f55-5342-4412-9e6b-696361645f70,rev?*
G04 #@! TF.SameCoordinates,Original*
G04 #@! TF.FileFunction,Other,User*
%FSLAX46Y46*%
G04 Gerber Fmt 4.6, Leading zero omitted, Abs format (unit mm)*
G04 Created by KiCad (PCBNEW (5.1.9-0-10_14)) date 2021-02-12 10:42:39*
%MOMM*%
%LPD*%
G01*
G04 APERTURE LIST*
%ADD10C,0.150000*%
%ADD11C,0.050000*%
G04 APERTURE END LIST*
D10*
X99325000Y-115125000D02*
X99325000Y-115125000D01*
X99325000Y-115125000D02*
X86275000Y-115125000D01*
X86275000Y-115125000D02*
X86275000Y-136700000D01*
X86275000Y-136700000D02*
X99325000Y-136700000D01*
X99325000Y-136700000D02*
X99325000Y-115125000D01*
D11*
X98744000Y-110638000D02*
X98744000Y-112638000D01*
X98744000Y-110638000D02*
X97944000Y-110638000D01*
X97944000Y-112638000D02*
X98744000Y-112638000D01*
X97944000Y-112638000D02*
X97944000Y-110638000D01*
X97174500Y-110484000D02*
X97174500Y-108484000D01*
X97174500Y-110484000D02*
X97974500Y-110484000D01*
X97974500Y-108484000D02*
X97174500Y-108484000D01*
X97974500Y-108484000D02*
X97974500Y-110484000D01*
X96158500Y-110484000D02*
X96158500Y-108484000D01*
X96158500Y-110484000D02*
X96958500Y-110484000D01*
X96958500Y-108484000D02*
X96158500Y-108484000D01*
X96958500Y-108484000D02*
X96958500Y-110484000D01*
X86171000Y-106955000D02*
X86171000Y-108955000D01*
X86171000Y-106955000D02*
X85371000Y-106955000D01*
X85371000Y-108955000D02*
X86171000Y-108955000D01*
X85371000Y-108955000D02*
X85371000Y-106955000D01*
X98744000Y-113178000D02*
X98744000Y-115178000D01*
X98744000Y-113178000D02*
X97944000Y-113178000D01*
X97944000Y-115178000D02*
X98744000Y-115178000D01*
X97944000Y-115178000D02*
X97944000Y-113178000D01*
X94264000Y-112546000D02*
X92264000Y-112546000D01*
X94264000Y-112546000D02*
X94264000Y-111746000D01*
X92264000Y-111746000D02*
X92264000Y-112546000D01*
X92264000Y-111746000D02*
X94264000Y-111746000D01*
X99918500Y-112443000D02*
X99918500Y-110843000D01*
X99918500Y-112443000D02*
X100818500Y-112443000D01*
X100818500Y-110843000D02*
X99918500Y-110843000D01*
X100818500Y-110843000D02*
X100818500Y-112443000D01*
X98902500Y-112443000D02*
X98902500Y-110843000D01*
X98902500Y-112443000D02*
X99802500Y-112443000D01*
X99802500Y-110843000D02*
X98902500Y-110843000D01*
X99802500Y-110843000D02*
X99802500Y-112443000D01*
X97643500Y-106779000D02*
X97643500Y-108379000D01*
X97643500Y-106779000D02*
X96743500Y-106779000D01*
X96743500Y-108379000D02*
X97643500Y-108379000D01*
X96743500Y-108379000D02*
X96743500Y-106779000D01*
X97759500Y-108379000D02*
X97759500Y-106779000D01*
X97759500Y-108379000D02*
X98659500Y-108379000D01*
X98659500Y-106779000D02*
X97759500Y-106779000D01*
X98659500Y-106779000D02*
X98659500Y-108379000D01*
X94603000Y-109949000D02*
X94603000Y-111549000D01*
X94603000Y-109949000D02*
X93703000Y-109949000D01*
X93703000Y-111549000D02*
X94603000Y-111549000D01*
X93703000Y-111549000D02*
X93703000Y-109949000D01*
X85321000Y-111803000D02*
X85321000Y-110203000D01*
X85321000Y-111803000D02*
X86221000Y-111803000D01*
X86221000Y-110203000D02*
X85321000Y-110203000D01*
X86221000Y-110203000D02*
X86221000Y-111803000D01*
X85514500Y-111743000D02*
X89314500Y-111743000D01*
X89314500Y-111743000D02*
X89314500Y-115343000D01*
X89314500Y-115343000D02*
X85514500Y-115343000D01*
X85514500Y-115343000D02*
X85514500Y-111743000D01*
M02*
