G04 #@! TF.GenerationSoftware,KiCad,Pcbnew,(5.1.9-0-10_14)*
G04 #@! TF.CreationDate,2021-02-12T10:42:39+01:00*
G04 #@! TF.ProjectId,l0_USBA,6c305f55-5342-4412-9e6b-696361645f70,rev?*
G04 #@! TF.SameCoordinates,Original*
G04 #@! TF.FileFunction,Other,Fab,Top*
%FSLAX46Y46*%
G04 Gerber Fmt 4.6, Leading zero omitted, Abs format (unit mm)*
G04 Created by KiCad (PCBNEW (5.1.9-0-10_14)) date 2021-02-12 10:42:39*
%MOMM*%
%LPD*%
G01*
G04 APERTURE LIST*
%ADD10C,0.300000*%
%ADD11C,0.150000*%
%ADD12C,0.100000*%
%ADD13C,0.125000*%
%ADD14C,0.075000*%
G04 APERTURE END LIST*
D10*
X86795714Y-98572428D02*
X86867142Y-98501000D01*
X87010000Y-98429571D01*
X87367142Y-98429571D01*
X87510000Y-98501000D01*
X87581428Y-98572428D01*
X87652857Y-98715285D01*
X87652857Y-98858142D01*
X87581428Y-99072428D01*
X86724285Y-99929571D01*
X87652857Y-99929571D01*
X88581428Y-98429571D02*
X88724285Y-98429571D01*
X88867142Y-98501000D01*
X88938571Y-98572428D01*
X89010000Y-98715285D01*
X89081428Y-99001000D01*
X89081428Y-99358142D01*
X89010000Y-99643857D01*
X88938571Y-99786714D01*
X88867142Y-99858142D01*
X88724285Y-99929571D01*
X88581428Y-99929571D01*
X88438571Y-99858142D01*
X88367142Y-99786714D01*
X88295714Y-99643857D01*
X88224285Y-99358142D01*
X88224285Y-99001000D01*
X88295714Y-98715285D01*
X88367142Y-98572428D01*
X88438571Y-98501000D01*
X88581428Y-98429571D01*
X89724285Y-99786714D02*
X89795714Y-99858142D01*
X89724285Y-99929571D01*
X89652857Y-99858142D01*
X89724285Y-99786714D01*
X89724285Y-99929571D01*
X90295714Y-98429571D02*
X91224285Y-98429571D01*
X90724285Y-99001000D01*
X90938571Y-99001000D01*
X91081428Y-99072428D01*
X91152857Y-99143857D01*
X91224285Y-99286714D01*
X91224285Y-99643857D01*
X91152857Y-99786714D01*
X91081428Y-99858142D01*
X90938571Y-99929571D01*
X90510000Y-99929571D01*
X90367142Y-99858142D01*
X90295714Y-99786714D01*
X91795714Y-98572428D02*
X91867142Y-98501000D01*
X92010000Y-98429571D01*
X92367142Y-98429571D01*
X92510000Y-98501000D01*
X92581428Y-98572428D01*
X92652857Y-98715285D01*
X92652857Y-98858142D01*
X92581428Y-99072428D01*
X91724285Y-99929571D01*
X92652857Y-99929571D01*
X93581428Y-98429571D02*
X93724285Y-98429571D01*
X93867142Y-98501000D01*
X93938571Y-98572428D01*
X94010000Y-98715285D01*
X94081428Y-99001000D01*
X94081428Y-99358142D01*
X94010000Y-99643857D01*
X93938571Y-99786714D01*
X93867142Y-99858142D01*
X93724285Y-99929571D01*
X93581428Y-99929571D01*
X93438571Y-99858142D01*
X93367142Y-99786714D01*
X93295714Y-99643857D01*
X93224285Y-99358142D01*
X93224285Y-99001000D01*
X93295714Y-98715285D01*
X93367142Y-98572428D01*
X93438571Y-98501000D01*
X93581428Y-98429571D01*
X95867142Y-99929571D02*
X95867142Y-98929571D01*
X95867142Y-99072428D02*
X95938571Y-99001000D01*
X96081428Y-98929571D01*
X96295714Y-98929571D01*
X96438571Y-99001000D01*
X96510000Y-99143857D01*
X96510000Y-99929571D01*
X96510000Y-99143857D02*
X96581428Y-99001000D01*
X96724285Y-98929571D01*
X96938571Y-98929571D01*
X97081428Y-99001000D01*
X97152857Y-99143857D01*
X97152857Y-99929571D01*
X97867142Y-99929571D02*
X97867142Y-98929571D01*
X97867142Y-99072428D02*
X97938571Y-99001000D01*
X98081428Y-98929571D01*
X98295714Y-98929571D01*
X98438571Y-99001000D01*
X98510000Y-99143857D01*
X98510000Y-99929571D01*
X98510000Y-99143857D02*
X98581428Y-99001000D01*
X98724285Y-98929571D01*
X98938571Y-98929571D01*
X99081428Y-99001000D01*
X99152857Y-99143857D01*
X99152857Y-99929571D01*
X82850000Y-101351000D02*
X103170000Y-101351000D01*
X82850000Y-106050000D02*
X82850000Y-100764579D01*
X103170000Y-106050000D02*
X103170000Y-100764579D01*
X103170000Y-101351000D02*
X102043496Y-101937421D01*
X103170000Y-101351000D02*
X102043496Y-100764579D01*
X82850000Y-101351000D02*
X83976504Y-101937421D01*
X82850000Y-101351000D02*
X83976504Y-100764579D01*
X75626429Y-108312857D02*
X75626429Y-107455714D01*
X75626429Y-107884285D02*
X77126429Y-107884285D01*
X76912143Y-107741428D01*
X76769286Y-107598571D01*
X76697858Y-107455714D01*
X77126429Y-109670000D02*
X77126429Y-108955714D01*
X76412143Y-108884285D01*
X76483572Y-108955714D01*
X76555001Y-109098571D01*
X76555001Y-109455714D01*
X76483572Y-109598571D01*
X76412143Y-109670000D01*
X76269286Y-109741428D01*
X75912143Y-109741428D01*
X75769286Y-109670000D01*
X75697858Y-109598571D01*
X75626429Y-109455714D01*
X75626429Y-109098571D01*
X75697858Y-108955714D01*
X75769286Y-108884285D01*
X75769286Y-110384285D02*
X75697858Y-110455714D01*
X75626429Y-110384285D01*
X75697858Y-110312857D01*
X75769286Y-110384285D01*
X75626429Y-110384285D01*
X76983572Y-111027142D02*
X77055001Y-111098571D01*
X77126429Y-111241428D01*
X77126429Y-111598571D01*
X77055001Y-111741428D01*
X76983572Y-111812857D01*
X76840715Y-111884285D01*
X76697858Y-111884285D01*
X76483572Y-111812857D01*
X75626429Y-110955714D01*
X75626429Y-111884285D01*
X76626429Y-113170000D02*
X75626429Y-113170000D01*
X77197858Y-112812857D02*
X76126429Y-112455714D01*
X76126429Y-113384285D01*
X77126429Y-114241428D02*
X77126429Y-114384285D01*
X77055001Y-114527142D01*
X76983572Y-114598571D01*
X76840715Y-114670000D01*
X76555001Y-114741428D01*
X76197858Y-114741428D01*
X75912143Y-114670000D01*
X75769286Y-114598571D01*
X75697858Y-114527142D01*
X75626429Y-114384285D01*
X75626429Y-114241428D01*
X75697858Y-114098571D01*
X75769286Y-114027142D01*
X75912143Y-113955714D01*
X76197858Y-113884285D01*
X76555001Y-113884285D01*
X76840715Y-113955714D01*
X76983572Y-114027142D01*
X77055001Y-114098571D01*
X77126429Y-114241428D01*
X75626429Y-116527142D02*
X76626429Y-116527142D01*
X76483572Y-116527142D02*
X76555001Y-116598571D01*
X76626429Y-116741428D01*
X76626429Y-116955714D01*
X76555001Y-117098571D01*
X76412143Y-117170000D01*
X75626429Y-117170000D01*
X76412143Y-117170000D02*
X76555001Y-117241428D01*
X76626429Y-117384285D01*
X76626429Y-117598571D01*
X76555001Y-117741428D01*
X76412143Y-117812857D01*
X75626429Y-117812857D01*
X75626429Y-118527142D02*
X76626429Y-118527142D01*
X76483572Y-118527142D02*
X76555001Y-118598571D01*
X76626429Y-118741428D01*
X76626429Y-118955714D01*
X76555001Y-119098571D01*
X76412143Y-119170000D01*
X75626429Y-119170000D01*
X76412143Y-119170000D02*
X76555001Y-119241428D01*
X76626429Y-119384285D01*
X76626429Y-119598571D01*
X76555001Y-119741428D01*
X76412143Y-119812857D01*
X75626429Y-119812857D01*
X78405001Y-106050000D02*
X78405001Y-121290000D01*
X82850000Y-106050000D02*
X77818580Y-106050000D01*
X82850000Y-121290000D02*
X77818580Y-121290000D01*
X78405001Y-121290000D02*
X77818580Y-120163496D01*
X78405001Y-121290000D02*
X78991422Y-120163496D01*
X78405001Y-106050000D02*
X77818580Y-107176504D01*
X78405001Y-106050000D02*
X78991422Y-107176504D01*
D11*
X86800000Y-136550000D02*
X86800000Y-117750000D01*
X86800000Y-117750000D02*
X98800000Y-117750000D01*
X98800000Y-117750000D02*
X98800000Y-136550000D01*
X98800000Y-136550000D02*
X86800000Y-136550000D01*
X86200000Y-121500000D02*
X99400000Y-121500000D01*
D12*
X95242805Y-112971500D02*
G75*
G03*
X95242805Y-112971500I-200805J0D01*
G01*
X97709000Y-113416000D02*
X97709000Y-111701500D01*
X94661000Y-113416000D02*
X97709000Y-113416000D01*
X94661000Y-111701500D02*
X94661000Y-113416000D01*
X97709000Y-111701500D02*
X94661000Y-111701500D01*
X88554105Y-107007500D02*
G75*
G03*
X88554105Y-107007500I-179605J0D01*
G01*
X87993500Y-111579500D02*
X87993500Y-106626500D01*
X91930500Y-111579500D02*
X87993500Y-111579500D01*
X91930500Y-106626500D02*
X91930500Y-111579500D01*
X87993500Y-106626500D02*
X91930500Y-106626500D01*
X99233000Y-108209000D02*
X100312500Y-108209000D01*
X99741000Y-108209000D02*
X99233000Y-109288500D01*
X100312500Y-109288500D02*
X99741000Y-108209000D01*
X99233000Y-109288500D02*
X100312500Y-109288500D01*
X100566500Y-110177500D02*
X98915500Y-110177500D01*
X100566500Y-106748500D02*
X100566500Y-110177500D01*
X98915500Y-106748500D02*
X100566500Y-106748500D01*
X98915500Y-110177500D02*
X98915500Y-106748500D01*
X99479500Y-113738500D02*
G75*
G03*
X99479500Y-113738500I-127000J0D01*
G01*
X100114500Y-114437000D02*
X100495500Y-114437000D01*
X100305000Y-114373500D02*
X100114500Y-114056000D01*
X100495500Y-114056000D02*
X100305000Y-114373500D01*
X100114500Y-114056000D02*
X100495500Y-114056000D01*
X99225500Y-114437000D02*
X99606500Y-114437000D01*
X99416000Y-114373500D02*
X99225500Y-114056000D01*
X99606500Y-114056000D02*
X99416000Y-114373500D01*
X99225500Y-114056000D02*
X99606500Y-114056000D01*
X100622500Y-114881500D02*
X99098500Y-114881500D01*
X100622500Y-113484500D02*
X100622500Y-114881500D01*
X99098500Y-113484500D02*
X100622500Y-113484500D01*
X99098500Y-114881500D02*
X99098500Y-113484500D01*
X98094000Y-111138000D02*
X98594000Y-111138000D01*
X98094000Y-112138000D02*
X98094000Y-111138000D01*
X98594000Y-112138000D02*
X98094000Y-112138000D01*
X98594000Y-111138000D02*
X98594000Y-112138000D01*
X97824500Y-109984000D02*
X97324500Y-109984000D01*
X97824500Y-108984000D02*
X97824500Y-109984000D01*
X97324500Y-108984000D02*
X97824500Y-108984000D01*
X97324500Y-109984000D02*
X97324500Y-108984000D01*
X96808500Y-109984000D02*
X96308500Y-109984000D01*
X96808500Y-108984000D02*
X96808500Y-109984000D01*
X96308500Y-108984000D02*
X96808500Y-108984000D01*
X96308500Y-109984000D02*
X96308500Y-108984000D01*
X85521000Y-107455000D02*
X86021000Y-107455000D01*
X85521000Y-108455000D02*
X85521000Y-107455000D01*
X86021000Y-108455000D02*
X85521000Y-108455000D01*
X86021000Y-107455000D02*
X86021000Y-108455000D01*
X98094000Y-113678000D02*
X98594000Y-113678000D01*
X98094000Y-114678000D02*
X98094000Y-113678000D01*
X98594000Y-114678000D02*
X98094000Y-114678000D01*
X98594000Y-113678000D02*
X98594000Y-114678000D01*
X93764000Y-111896000D02*
X93764000Y-112396000D01*
X92764000Y-111896000D02*
X93764000Y-111896000D01*
X92764000Y-112396000D02*
X92764000Y-111896000D01*
X93764000Y-112396000D02*
X92764000Y-112396000D01*
X100618500Y-111143000D02*
X100618500Y-112143000D01*
X100618500Y-112143000D02*
X100118500Y-112143000D01*
X100118500Y-112143000D02*
X100118500Y-111143000D01*
X100118500Y-111143000D02*
X100618500Y-111143000D01*
X99602500Y-111143000D02*
X99602500Y-112143000D01*
X99602500Y-112143000D02*
X99102500Y-112143000D01*
X99102500Y-112143000D02*
X99102500Y-111143000D01*
X99102500Y-111143000D02*
X99602500Y-111143000D01*
X96943500Y-108079000D02*
X96943500Y-107079000D01*
X96943500Y-107079000D02*
X97443500Y-107079000D01*
X97443500Y-107079000D02*
X97443500Y-108079000D01*
X97443500Y-108079000D02*
X96943500Y-108079000D01*
X98459500Y-107079000D02*
X98459500Y-108079000D01*
X98459500Y-108079000D02*
X97959500Y-108079000D01*
X97959500Y-108079000D02*
X97959500Y-107079000D01*
X97959500Y-107079000D02*
X98459500Y-107079000D01*
X93903000Y-111249000D02*
X93903000Y-110249000D01*
X93903000Y-110249000D02*
X94403000Y-110249000D01*
X94403000Y-110249000D02*
X94403000Y-111249000D01*
X94403000Y-111249000D02*
X93903000Y-111249000D01*
X86021000Y-110503000D02*
X86021000Y-111503000D01*
X86021000Y-111503000D02*
X85521000Y-111503000D01*
X85521000Y-111503000D02*
X85521000Y-110503000D01*
X85521000Y-110503000D02*
X86021000Y-110503000D01*
X86514500Y-112643000D02*
X87164500Y-111993000D01*
X88314500Y-111993000D02*
X87164500Y-111993000D01*
X86514500Y-112643000D02*
X86514500Y-115093000D01*
X88314500Y-115093000D02*
X86514500Y-115093000D01*
X88314500Y-111993000D02*
X88314500Y-115093000D01*
D13*
X95785547Y-112220190D02*
X95785547Y-112624952D01*
X95809357Y-112672571D01*
X95833166Y-112696380D01*
X95880785Y-112720190D01*
X95976023Y-112720190D01*
X96023642Y-112696380D01*
X96047452Y-112672571D01*
X96071261Y-112624952D01*
X96071261Y-112220190D01*
X96261738Y-112220190D02*
X96571261Y-112220190D01*
X96404595Y-112410666D01*
X96476023Y-112410666D01*
X96523642Y-112434476D01*
X96547452Y-112458285D01*
X96571261Y-112505904D01*
X96571261Y-112624952D01*
X96547452Y-112672571D01*
X96523642Y-112696380D01*
X96476023Y-112720190D01*
X96333166Y-112720190D01*
X96285547Y-112696380D01*
X96261738Y-112672571D01*
X89669047Y-108876190D02*
X89669047Y-109280952D01*
X89692857Y-109328571D01*
X89716666Y-109352380D01*
X89764285Y-109376190D01*
X89859523Y-109376190D01*
X89907142Y-109352380D01*
X89930952Y-109328571D01*
X89954761Y-109280952D01*
X89954761Y-108876190D01*
X90454761Y-109376190D02*
X90169047Y-109376190D01*
X90311904Y-109376190D02*
X90311904Y-108876190D01*
X90264285Y-108947619D01*
X90216666Y-108995238D01*
X90169047Y-109019047D01*
X99379452Y-107541190D02*
X99379452Y-107041190D01*
X99498500Y-107041190D01*
X99569928Y-107065000D01*
X99617547Y-107112619D01*
X99641357Y-107160238D01*
X99665166Y-107255476D01*
X99665166Y-107326904D01*
X99641357Y-107422142D01*
X99617547Y-107469761D01*
X99569928Y-107517380D01*
X99498500Y-107541190D01*
X99379452Y-107541190D01*
X99855642Y-107088809D02*
X99879452Y-107065000D01*
X99927071Y-107041190D01*
X100046119Y-107041190D01*
X100093738Y-107065000D01*
X100117547Y-107088809D01*
X100141357Y-107136428D01*
X100141357Y-107184047D01*
X100117547Y-107255476D01*
X99831833Y-107541190D01*
X100141357Y-107541190D01*
X99498952Y-113261190D02*
X99498952Y-112761190D01*
X99618000Y-112761190D01*
X99689428Y-112785000D01*
X99737047Y-112832619D01*
X99760857Y-112880238D01*
X99784666Y-112975476D01*
X99784666Y-113046904D01*
X99760857Y-113142142D01*
X99737047Y-113189761D01*
X99689428Y-113237380D01*
X99618000Y-113261190D01*
X99498952Y-113261190D01*
X100260857Y-113261190D02*
X99975142Y-113261190D01*
X100118000Y-113261190D02*
X100118000Y-112761190D01*
X100070380Y-112832619D01*
X100022761Y-112880238D01*
X99975142Y-112904047D01*
D14*
X98441142Y-111678000D02*
X98455428Y-111692285D01*
X98469714Y-111735142D01*
X98469714Y-111763714D01*
X98455428Y-111806571D01*
X98426857Y-111835142D01*
X98398285Y-111849428D01*
X98341142Y-111863714D01*
X98298285Y-111863714D01*
X98241142Y-111849428D01*
X98212571Y-111835142D01*
X98184000Y-111806571D01*
X98169714Y-111763714D01*
X98169714Y-111735142D01*
X98184000Y-111692285D01*
X98198285Y-111678000D01*
X98169714Y-111420857D02*
X98169714Y-111478000D01*
X98184000Y-111506571D01*
X98198285Y-111520857D01*
X98241142Y-111549428D01*
X98298285Y-111563714D01*
X98412571Y-111563714D01*
X98441142Y-111549428D01*
X98455428Y-111535142D01*
X98469714Y-111506571D01*
X98469714Y-111449428D01*
X98455428Y-111420857D01*
X98441142Y-111406571D01*
X98412571Y-111392285D01*
X98341142Y-111392285D01*
X98312571Y-111406571D01*
X98298285Y-111420857D01*
X98284000Y-111449428D01*
X98284000Y-111506571D01*
X98298285Y-111535142D01*
X98312571Y-111549428D01*
X98341142Y-111563714D01*
X97691642Y-109544000D02*
X97705928Y-109558285D01*
X97720214Y-109601142D01*
X97720214Y-109629714D01*
X97705928Y-109672571D01*
X97677357Y-109701142D01*
X97648785Y-109715428D01*
X97591642Y-109729714D01*
X97548785Y-109729714D01*
X97491642Y-109715428D01*
X97463071Y-109701142D01*
X97434500Y-109672571D01*
X97420214Y-109629714D01*
X97420214Y-109601142D01*
X97434500Y-109558285D01*
X97448785Y-109544000D01*
X97420214Y-109272571D02*
X97420214Y-109415428D01*
X97563071Y-109429714D01*
X97548785Y-109415428D01*
X97534500Y-109386857D01*
X97534500Y-109315428D01*
X97548785Y-109286857D01*
X97563071Y-109272571D01*
X97591642Y-109258285D01*
X97663071Y-109258285D01*
X97691642Y-109272571D01*
X97705928Y-109286857D01*
X97720214Y-109315428D01*
X97720214Y-109386857D01*
X97705928Y-109415428D01*
X97691642Y-109429714D01*
X96675642Y-109544000D02*
X96689928Y-109558285D01*
X96704214Y-109601142D01*
X96704214Y-109629714D01*
X96689928Y-109672571D01*
X96661357Y-109701142D01*
X96632785Y-109715428D01*
X96575642Y-109729714D01*
X96532785Y-109729714D01*
X96475642Y-109715428D01*
X96447071Y-109701142D01*
X96418500Y-109672571D01*
X96404214Y-109629714D01*
X96404214Y-109601142D01*
X96418500Y-109558285D01*
X96432785Y-109544000D01*
X96504214Y-109286857D02*
X96704214Y-109286857D01*
X96389928Y-109358285D02*
X96604214Y-109429714D01*
X96604214Y-109244000D01*
X85868142Y-107995000D02*
X85882428Y-108009285D01*
X85896714Y-108052142D01*
X85896714Y-108080714D01*
X85882428Y-108123571D01*
X85853857Y-108152142D01*
X85825285Y-108166428D01*
X85768142Y-108180714D01*
X85725285Y-108180714D01*
X85668142Y-108166428D01*
X85639571Y-108152142D01*
X85611000Y-108123571D01*
X85596714Y-108080714D01*
X85596714Y-108052142D01*
X85611000Y-108009285D01*
X85625285Y-107995000D01*
X85596714Y-107895000D02*
X85596714Y-107709285D01*
X85711000Y-107809285D01*
X85711000Y-107766428D01*
X85725285Y-107737857D01*
X85739571Y-107723571D01*
X85768142Y-107709285D01*
X85839571Y-107709285D01*
X85868142Y-107723571D01*
X85882428Y-107737857D01*
X85896714Y-107766428D01*
X85896714Y-107852142D01*
X85882428Y-107880714D01*
X85868142Y-107895000D01*
X98441142Y-114218000D02*
X98455428Y-114232285D01*
X98469714Y-114275142D01*
X98469714Y-114303714D01*
X98455428Y-114346571D01*
X98426857Y-114375142D01*
X98398285Y-114389428D01*
X98341142Y-114403714D01*
X98298285Y-114403714D01*
X98241142Y-114389428D01*
X98212571Y-114375142D01*
X98184000Y-114346571D01*
X98169714Y-114303714D01*
X98169714Y-114275142D01*
X98184000Y-114232285D01*
X98198285Y-114218000D01*
X98198285Y-114103714D02*
X98184000Y-114089428D01*
X98169714Y-114060857D01*
X98169714Y-113989428D01*
X98184000Y-113960857D01*
X98198285Y-113946571D01*
X98226857Y-113932285D01*
X98255428Y-113932285D01*
X98298285Y-113946571D01*
X98469714Y-114118000D01*
X98469714Y-113932285D01*
X93224000Y-112243142D02*
X93209714Y-112257428D01*
X93166857Y-112271714D01*
X93138285Y-112271714D01*
X93095428Y-112257428D01*
X93066857Y-112228857D01*
X93052571Y-112200285D01*
X93038285Y-112143142D01*
X93038285Y-112100285D01*
X93052571Y-112043142D01*
X93066857Y-112014571D01*
X93095428Y-111986000D01*
X93138285Y-111971714D01*
X93166857Y-111971714D01*
X93209714Y-111986000D01*
X93224000Y-112000285D01*
X93509714Y-112271714D02*
X93338285Y-112271714D01*
X93424000Y-112271714D02*
X93424000Y-111971714D01*
X93395428Y-112014571D01*
X93366857Y-112043142D01*
X93338285Y-112057428D01*
X87140690Y-113923952D02*
X87545452Y-113923952D01*
X87593071Y-113900142D01*
X87616880Y-113876333D01*
X87640690Y-113828714D01*
X87640690Y-113733476D01*
X87616880Y-113685857D01*
X87593071Y-113662047D01*
X87545452Y-113638238D01*
X87140690Y-113638238D01*
X87188309Y-113423952D02*
X87164500Y-113400142D01*
X87140690Y-113352523D01*
X87140690Y-113233476D01*
X87164500Y-113185857D01*
X87188309Y-113162047D01*
X87235928Y-113138238D01*
X87283547Y-113138238D01*
X87354976Y-113162047D01*
X87640690Y-113447761D01*
X87640690Y-113138238D01*
M02*
