G04 #@! TF.GenerationSoftware,KiCad,Pcbnew,(5.1.9-0-10_14)*
G04 #@! TF.CreationDate,2021-02-12T10:42:39+01:00*
G04 #@! TF.ProjectId,l0_USBA,6c305f55-5342-4412-9e6b-696361645f70,rev?*
G04 #@! TF.SameCoordinates,Original*
G04 #@! TF.FileFunction,Soldermask,Top*
G04 #@! TF.FilePolarity,Negative*
%FSLAX46Y46*%
G04 Gerber Fmt 4.6, Leading zero omitted, Abs format (unit mm)*
G04 Created by KiCad (PCBNEW (5.1.9-0-10_14)) date 2021-02-12 10:42:39*
%MOMM*%
%LPD*%
G01*
G04 APERTURE LIST*
%ADD10C,1.100000*%
%ADD11R,1.200000X2.000000*%
%ADD12R,0.600000X1.200000*%
%ADD13R,1.000000X0.300000*%
%ADD14R,1.500000X2.410000*%
%ADD15R,1.500000X1.050000*%
%ADD16R,0.500000X0.850000*%
%ADD17C,1.700000*%
%ADD18R,0.500000X0.600000*%
%ADD19R,0.600000X0.500000*%
%ADD20R,0.600000X0.400000*%
%ADD21R,1.100000X0.600000*%
G04 APERTURE END LIST*
D10*
X95050000Y-118750000D03*
X90550000Y-118750000D03*
D11*
X93800000Y-116150000D03*
X91800000Y-116150000D03*
X96300000Y-116150000D03*
X89300000Y-116150000D03*
G36*
G01*
X97700000Y-119500000D02*
X97700000Y-118000000D01*
G75*
G02*
X98500000Y-117200000I800000J0D01*
G01*
X98500000Y-117200000D01*
G75*
G02*
X99300000Y-118000000I0J-800000D01*
G01*
X99300000Y-119500000D01*
G75*
G02*
X98500000Y-120300000I-800000J0D01*
G01*
X98500000Y-120300000D01*
G75*
G02*
X97700000Y-119500000I0J800000D01*
G01*
G37*
G36*
G01*
X86300000Y-119500000D02*
X86300000Y-118000000D01*
G75*
G02*
X87100000Y-117200000I800000J0D01*
G01*
X87100000Y-117200000D01*
G75*
G02*
X87900000Y-118000000I0J-800000D01*
G01*
X87900000Y-119500000D01*
G75*
G02*
X87100000Y-120300000I-800000J0D01*
G01*
X87100000Y-120300000D01*
G75*
G02*
X86300000Y-119500000I0J800000D01*
G01*
G37*
D12*
X97135000Y-111377000D03*
X96185000Y-111377000D03*
X95235000Y-111377000D03*
X97135000Y-113677000D03*
X96185000Y-113677000D03*
X95235000Y-113677000D03*
D13*
X92959200Y-106880500D03*
X92959200Y-107515500D03*
X92959200Y-108150500D03*
X92959200Y-108785500D03*
X92959200Y-109420500D03*
X92959200Y-110055500D03*
X92959200Y-110690500D03*
X92959200Y-111325500D03*
X86964800Y-111325500D03*
X86964800Y-110690500D03*
X86964800Y-110055500D03*
X86964800Y-109420500D03*
X86964800Y-108785500D03*
X86964800Y-108150500D03*
X86964800Y-107515500D03*
X86964800Y-106880500D03*
D14*
X99741000Y-107613000D03*
D15*
X99741000Y-109988000D03*
D16*
X99360500Y-113308000D03*
X99360500Y-115058000D03*
X100360500Y-113308000D03*
X100360500Y-115058000D03*
D17*
X101887500Y-109865000D03*
X101887500Y-107325000D03*
X101887500Y-117485000D03*
X101887500Y-112405000D03*
X101887500Y-120025000D03*
X84112500Y-107325000D03*
X84112500Y-117485000D03*
X84112500Y-112405000D03*
X101887500Y-114945000D03*
X84112500Y-114945000D03*
X84112500Y-120025000D03*
X84112500Y-109865000D03*
D18*
X98344000Y-111088000D03*
X98344000Y-112188000D03*
X97574500Y-110034000D03*
X97574500Y-108934000D03*
X96558500Y-110034000D03*
X96558500Y-108934000D03*
X85771000Y-107405000D03*
X85771000Y-108505000D03*
X98344000Y-113628000D03*
X98344000Y-114728000D03*
D19*
X93814000Y-112146000D03*
X92714000Y-112146000D03*
D20*
X100368500Y-112093000D03*
X100368500Y-111193000D03*
X99352500Y-112093000D03*
X99352500Y-111193000D03*
X97193500Y-107129000D03*
X97193500Y-108029000D03*
X98209500Y-108029000D03*
X98209500Y-107129000D03*
X94153000Y-110299000D03*
X94153000Y-111199000D03*
X85771000Y-111453000D03*
X85771000Y-110553000D03*
D21*
X86114500Y-112593000D03*
X86114500Y-113543000D03*
X86114500Y-114493000D03*
X88714500Y-114493000D03*
X88714500Y-112593000D03*
M02*
