G04 #@! TF.GenerationSoftware,KiCad,Pcbnew,(5.1.9-0-10_14)*
G04 #@! TF.CreationDate,2021-02-12T10:42:39+01:00*
G04 #@! TF.ProjectId,l0_USBA,6c305f55-5342-4412-9e6b-696361645f70,rev?*
G04 #@! TF.SameCoordinates,Original*
G04 #@! TF.FileFunction,Copper,L1,Top*
G04 #@! TF.FilePolarity,Positive*
%FSLAX46Y46*%
G04 Gerber Fmt 4.6, Leading zero omitted, Abs format (unit mm)*
G04 Created by KiCad (PCBNEW (5.1.9-0-10_14)) date 2021-02-12 10:42:39*
%MOMM*%
%LPD*%
G01*
G04 APERTURE LIST*
G04 #@! TA.AperFunction,SMDPad,CuDef*
%ADD10R,1.200000X2.000000*%
G04 #@! TD*
G04 #@! TA.AperFunction,SMDPad,CuDef*
%ADD11R,0.600000X1.200000*%
G04 #@! TD*
G04 #@! TA.AperFunction,SMDPad,CuDef*
%ADD12R,1.000000X0.300000*%
G04 #@! TD*
G04 #@! TA.AperFunction,SMDPad,CuDef*
%ADD13R,1.500000X2.410000*%
G04 #@! TD*
G04 #@! TA.AperFunction,SMDPad,CuDef*
%ADD14R,1.500000X1.050000*%
G04 #@! TD*
G04 #@! TA.AperFunction,SMDPad,CuDef*
%ADD15R,0.500000X0.850000*%
G04 #@! TD*
G04 #@! TA.AperFunction,ComponentPad*
%ADD16C,1.700000*%
G04 #@! TD*
G04 #@! TA.AperFunction,SMDPad,CuDef*
%ADD17R,0.500000X0.600000*%
G04 #@! TD*
G04 #@! TA.AperFunction,SMDPad,CuDef*
%ADD18R,0.600000X0.500000*%
G04 #@! TD*
G04 #@! TA.AperFunction,SMDPad,CuDef*
%ADD19R,0.600000X0.400000*%
G04 #@! TD*
G04 #@! TA.AperFunction,SMDPad,CuDef*
%ADD20R,1.100000X0.600000*%
G04 #@! TD*
G04 #@! TA.AperFunction,ViaPad*
%ADD21C,0.400000*%
G04 #@! TD*
G04 #@! TA.AperFunction,ViaPad*
%ADD22C,0.600000*%
G04 #@! TD*
G04 #@! TA.AperFunction,Conductor*
%ADD23C,0.150000*%
G04 #@! TD*
G04 #@! TA.AperFunction,Conductor*
%ADD24C,0.300000*%
G04 #@! TD*
G04 #@! TA.AperFunction,Conductor*
%ADD25C,0.200000*%
G04 #@! TD*
G04 #@! TA.AperFunction,Conductor*
%ADD26C,0.100000*%
G04 #@! TD*
G04 APERTURE END LIST*
D10*
X93800000Y-116150000D03*
X91800000Y-116150000D03*
X96300000Y-116150000D03*
X89300000Y-116150000D03*
G04 #@! TA.AperFunction,WasherPad*
G36*
G01*
X97700000Y-119500000D02*
X97700000Y-118000000D01*
G75*
G02*
X98500000Y-117200000I800000J0D01*
G01*
X98500000Y-117200000D01*
G75*
G02*
X99300000Y-118000000I0J-800000D01*
G01*
X99300000Y-119500000D01*
G75*
G02*
X98500000Y-120300000I-800000J0D01*
G01*
X98500000Y-120300000D01*
G75*
G02*
X97700000Y-119500000I0J800000D01*
G01*
G37*
G04 #@! TD.AperFunction*
G04 #@! TA.AperFunction,WasherPad*
G36*
G01*
X86300000Y-119500000D02*
X86300000Y-118000000D01*
G75*
G02*
X87100000Y-117200000I800000J0D01*
G01*
X87100000Y-117200000D01*
G75*
G02*
X87900000Y-118000000I0J-800000D01*
G01*
X87900000Y-119500000D01*
G75*
G02*
X87100000Y-120300000I-800000J0D01*
G01*
X87100000Y-120300000D01*
G75*
G02*
X86300000Y-119500000I0J800000D01*
G01*
G37*
G04 #@! TD.AperFunction*
D11*
X97135000Y-111377000D03*
X96185000Y-111377000D03*
X95235000Y-111377000D03*
X97135000Y-113677000D03*
X96185000Y-113677000D03*
X95235000Y-113677000D03*
D12*
X92959200Y-106880500D03*
X92959200Y-107515500D03*
X92959200Y-108150500D03*
X92959200Y-108785500D03*
X92959200Y-109420500D03*
X92959200Y-110055500D03*
X92959200Y-110690500D03*
X92959200Y-111325500D03*
X86964800Y-111325500D03*
X86964800Y-110690500D03*
X86964800Y-110055500D03*
X86964800Y-109420500D03*
X86964800Y-108785500D03*
X86964800Y-108150500D03*
X86964800Y-107515500D03*
X86964800Y-106880500D03*
D13*
X99741000Y-107613000D03*
D14*
X99741000Y-109988000D03*
D15*
X99360500Y-113308000D03*
X99360500Y-115058000D03*
X100360500Y-113308000D03*
X100360500Y-115058000D03*
D16*
X101887500Y-109865000D03*
X101887500Y-107325000D03*
X101887500Y-117485000D03*
X101887500Y-112405000D03*
X101887500Y-120025000D03*
X84112500Y-107325000D03*
X84112500Y-117485000D03*
X84112500Y-112405000D03*
X101887500Y-114945000D03*
X84112500Y-114945000D03*
X84112500Y-120025000D03*
X84112500Y-109865000D03*
D17*
X98344000Y-111088000D03*
X98344000Y-112188000D03*
X97574500Y-110034000D03*
X97574500Y-108934000D03*
X96558500Y-110034000D03*
X96558500Y-108934000D03*
X85771000Y-107405000D03*
X85771000Y-108505000D03*
X98344000Y-113628000D03*
X98344000Y-114728000D03*
D18*
X93814000Y-112146000D03*
X92714000Y-112146000D03*
D19*
X100368500Y-112093000D03*
X100368500Y-111193000D03*
X99352500Y-112093000D03*
X99352500Y-111193000D03*
X97193500Y-107129000D03*
X97193500Y-108029000D03*
X98209500Y-108029000D03*
X98209500Y-107129000D03*
X94153000Y-110299000D03*
X94153000Y-111199000D03*
X85771000Y-111453000D03*
X85771000Y-110553000D03*
D20*
X86114500Y-112593000D03*
X86114500Y-113543000D03*
X86114500Y-114493000D03*
X88714500Y-114493000D03*
X88714500Y-112593000D03*
D21*
X85812500Y-117993000D03*
X96693000Y-112654000D03*
X91732500Y-107325000D03*
X98344000Y-112908000D03*
X90300000Y-115100000D03*
X85390000Y-109352000D03*
X90978000Y-111130000D03*
X88565000Y-109225000D03*
X95042000Y-108209000D03*
X98150000Y-115600000D03*
X91613000Y-108209000D03*
X90724000Y-109098000D03*
D22*
X87114478Y-112527000D03*
X98691000Y-109988000D03*
D21*
X86279000Y-111892000D03*
X97582000Y-112400000D03*
D22*
X95150000Y-116050000D03*
X94553999Y-112696001D03*
D23*
X84962499Y-109015001D02*
X84112500Y-109865000D01*
X85187501Y-108789999D02*
X84962499Y-109015001D01*
X85187501Y-106525497D02*
X85187501Y-108789999D01*
X85340999Y-106371999D02*
X85187501Y-106525497D01*
X86964800Y-106580500D02*
X86756299Y-106371999D01*
X86756299Y-106371999D02*
X85340999Y-106371999D01*
X86964800Y-106880500D02*
X86964800Y-106580500D01*
X92609200Y-110055500D02*
X92959200Y-110055500D01*
X90704200Y-108150500D02*
X92609200Y-110055500D01*
X86964800Y-108150500D02*
X90704200Y-108150500D01*
X92959200Y-110690500D02*
X92959200Y-110055500D01*
X86466500Y-108150500D02*
X86964800Y-108150500D01*
X85771000Y-107455000D02*
X86466500Y-108150500D01*
X85771000Y-107405000D02*
X85771000Y-107455000D01*
X85187501Y-111329999D02*
X85187501Y-110212799D01*
X86614800Y-108785500D02*
X86964800Y-108785500D01*
X85187501Y-110212799D02*
X86614800Y-108785500D01*
X84112500Y-112405000D02*
X85187501Y-111329999D01*
X85771000Y-108971000D02*
X85390000Y-109352000D01*
X85771000Y-108505000D02*
X85771000Y-108971000D01*
X99233000Y-120782000D02*
X90470000Y-120782000D01*
X87639488Y-111705814D02*
X87689801Y-111655501D01*
X100360500Y-115058000D02*
X100360500Y-119654500D01*
X87689801Y-111065501D02*
X87314800Y-110690500D01*
X88174988Y-117454269D02*
X88174988Y-117260267D01*
X87689801Y-111655501D02*
X87689801Y-111065501D01*
X100360500Y-119654500D02*
X99233000Y-120782000D01*
X90470000Y-120782000D02*
X88182481Y-118494481D01*
X87314800Y-110690500D02*
X86964800Y-110690500D01*
X88182481Y-118494481D02*
X88182481Y-117461762D01*
X87639488Y-116724766D02*
X87639488Y-111705814D01*
X88174988Y-117260267D02*
X87639488Y-116724766D01*
X88182481Y-117461762D02*
X88174988Y-117454269D01*
X86614800Y-111325500D02*
X86964800Y-111325500D01*
X85842300Y-110553000D02*
X86614800Y-111325500D01*
X85771000Y-110553000D02*
X85842300Y-110553000D01*
X94026500Y-111325500D02*
X94153000Y-111199000D01*
X92959200Y-111325500D02*
X94026500Y-111325500D01*
D24*
X97574500Y-110034000D02*
X96558500Y-110034000D01*
X101887500Y-109865000D02*
X101696500Y-109865000D01*
X93759200Y-109420500D02*
X92959200Y-109420500D01*
X95395000Y-109420500D02*
X93759200Y-109420500D01*
X101696500Y-109865000D02*
X100368500Y-111193000D01*
X96558500Y-110034000D02*
X96008500Y-110034000D01*
X99352500Y-111193000D02*
X98449000Y-111193000D01*
X98449000Y-111193000D02*
X98344000Y-111088000D01*
X96008500Y-110034000D02*
X95395000Y-109420500D01*
X100368500Y-111193000D02*
X99352500Y-111193000D01*
X98344000Y-111088000D02*
X98344000Y-110803500D01*
X98344000Y-110803500D02*
X97574500Y-110034000D01*
D23*
X91671500Y-108150500D02*
X91613000Y-108209000D01*
X92959200Y-108150500D02*
X91671500Y-108150500D01*
X99360500Y-115233000D02*
X99360500Y-115058000D01*
X90895731Y-117675011D02*
X96918489Y-117675011D01*
X90827720Y-117607000D02*
X90895731Y-117675011D01*
X88751998Y-117607000D02*
X90827720Y-117607000D01*
X88474999Y-117330001D02*
X88751998Y-117607000D01*
X96918489Y-117675011D02*
X99360500Y-115233000D01*
X87939499Y-116600498D02*
X88474999Y-117135999D01*
X87939499Y-111882501D02*
X87939499Y-116600498D01*
X88474999Y-117135999D02*
X88474999Y-117330001D01*
X90724000Y-109098000D02*
X87939499Y-111882501D01*
X92959200Y-107515500D02*
X96116500Y-107515500D01*
X96503000Y-107129000D02*
X97193500Y-107129000D01*
X96116500Y-107515500D02*
X96503000Y-107129000D01*
X98209500Y-107129000D02*
X97193500Y-107129000D01*
D24*
X100029000Y-107325000D02*
X99741000Y-107613000D01*
X101887500Y-107325000D02*
X100029000Y-107325000D01*
X98209500Y-108529000D02*
X98209500Y-108029000D01*
X98209500Y-109506500D02*
X98209500Y-108529000D01*
X98691000Y-109988000D02*
X98209500Y-109506500D01*
X99741000Y-109988000D02*
X98691000Y-109988000D01*
X87048478Y-112593000D02*
X87114478Y-112527000D01*
X86114500Y-112593000D02*
X87048478Y-112593000D01*
D23*
X95235000Y-111677000D02*
X95235000Y-111377000D01*
X94766000Y-112146000D02*
X95235000Y-111677000D01*
X93814000Y-112146000D02*
X94766000Y-112146000D01*
X94603000Y-110299000D02*
X94153000Y-110299000D01*
X95235000Y-110627000D02*
X94907000Y-110299000D01*
X94907000Y-110299000D02*
X94603000Y-110299000D01*
X95235000Y-111377000D02*
X95235000Y-110627000D01*
X97944000Y-113178000D02*
X98344000Y-113578000D01*
X98344000Y-113578000D02*
X98344000Y-113628000D01*
X97894000Y-113178000D02*
X97944000Y-113178000D01*
X97135000Y-111377000D02*
X97135000Y-112419000D01*
X85840000Y-111453000D02*
X86279000Y-111892000D01*
X85771000Y-111453000D02*
X85840000Y-111453000D01*
X97340001Y-112599999D02*
X97328000Y-112612000D01*
X97382001Y-112599999D02*
X97340001Y-112599999D01*
X97582000Y-112400000D02*
X97382001Y-112599999D01*
X97328000Y-112612000D02*
X97894000Y-113178000D01*
X97135000Y-112419000D02*
X97328000Y-112612000D01*
X99352500Y-113300000D02*
X99360500Y-113308000D01*
X99352500Y-112093000D02*
X99352500Y-113300000D01*
X100368500Y-113300000D02*
X100360500Y-113308000D01*
X100368500Y-112093000D02*
X100368500Y-113300000D01*
X86114500Y-114943000D02*
X86114500Y-114493000D01*
X86112500Y-114945000D02*
X86114500Y-114943000D01*
X84112500Y-114945000D02*
X86112500Y-114945000D01*
X93800000Y-116550000D02*
X93800000Y-116150000D01*
X92974999Y-117375001D02*
X93800000Y-116550000D01*
X92267998Y-113677000D02*
X90974999Y-114969999D01*
X91019999Y-117375001D02*
X92974999Y-117375001D01*
X95235000Y-113677000D02*
X92267998Y-113677000D01*
X90974999Y-117330001D02*
X91019999Y-117375001D01*
X90974999Y-114969999D02*
X90974999Y-117330001D01*
X97135000Y-114427000D02*
X96749000Y-114813000D01*
X97135000Y-113677000D02*
X97135000Y-114427000D01*
X96749000Y-114813000D02*
X92637000Y-114813000D01*
X91800000Y-115650000D02*
X91800000Y-116150000D01*
X92637000Y-114813000D02*
X91800000Y-115650000D01*
D24*
X88714500Y-114493000D02*
X88714500Y-112593000D01*
X89564500Y-114493000D02*
X88714500Y-114493000D01*
X91361499Y-112696001D02*
X89564500Y-114493000D01*
X96185000Y-112277000D02*
X95765999Y-112696001D01*
X96185000Y-111377000D02*
X96185000Y-112277000D01*
X91361499Y-112696001D02*
X94553999Y-112696001D01*
X94553999Y-112696001D02*
X95765999Y-112696001D01*
X96200000Y-116050000D02*
X96300000Y-116150000D01*
X95150000Y-116050000D02*
X96200000Y-116050000D01*
D25*
X85257842Y-111866158D02*
X85303523Y-111903647D01*
X85355640Y-111931504D01*
X85412190Y-111948659D01*
X85471000Y-111954451D01*
X85781627Y-111954451D01*
X85789006Y-111991549D01*
X85564500Y-111991549D01*
X85505690Y-111997341D01*
X85449140Y-112014496D01*
X85397023Y-112042353D01*
X85351342Y-112079842D01*
X85313853Y-112125523D01*
X85285996Y-112177640D01*
X85268841Y-112234190D01*
X85263049Y-112293000D01*
X85263049Y-112893000D01*
X85268841Y-112951810D01*
X85285996Y-113008360D01*
X85313853Y-113060477D01*
X85351342Y-113106158D01*
X85397023Y-113143647D01*
X85449140Y-113171504D01*
X85505690Y-113188659D01*
X85564500Y-113194451D01*
X86664500Y-113194451D01*
X86723310Y-113188659D01*
X86779860Y-113171504D01*
X86831977Y-113143647D01*
X86877658Y-113106158D01*
X86894695Y-113085398D01*
X86939464Y-113103942D01*
X87055383Y-113127000D01*
X87173573Y-113127000D01*
X87264489Y-113108916D01*
X87264488Y-116706350D01*
X87262674Y-116724766D01*
X87264488Y-116743182D01*
X87264488Y-116743184D01*
X87269914Y-116798278D01*
X87291357Y-116868965D01*
X87299101Y-116883453D01*
X87319178Y-116921016D01*
X87314883Y-116919713D01*
X87100001Y-116898549D01*
X87099999Y-116898549D01*
X86885117Y-116919713D01*
X86678492Y-116982392D01*
X86488066Y-117084177D01*
X86321156Y-117221157D01*
X86184176Y-117388067D01*
X86082391Y-117578493D01*
X86019712Y-117785118D01*
X85998548Y-118000000D01*
X85998548Y-119500000D01*
X86019712Y-119714882D01*
X86082391Y-119921507D01*
X86184176Y-120111933D01*
X86321156Y-120278843D01*
X86488066Y-120415823D01*
X86678492Y-120517608D01*
X86885117Y-120580287D01*
X87099999Y-120601451D01*
X87100001Y-120601451D01*
X87314883Y-120580287D01*
X87521508Y-120517608D01*
X87711934Y-120415823D01*
X87878844Y-120278843D01*
X88015824Y-120111933D01*
X88117609Y-119921507D01*
X88180288Y-119714882D01*
X88201452Y-119500000D01*
X88201452Y-119043781D01*
X90102670Y-120945000D01*
X84805567Y-120945000D01*
X84845582Y-120918263D01*
X85005763Y-120758082D01*
X85131616Y-120569729D01*
X85218306Y-120360443D01*
X85262500Y-120138265D01*
X85262500Y-119911735D01*
X85218306Y-119689557D01*
X85131616Y-119480271D01*
X85005763Y-119291918D01*
X84845582Y-119131737D01*
X84657229Y-119005884D01*
X84447943Y-118919194D01*
X84225765Y-118875000D01*
X83999235Y-118875000D01*
X83777057Y-118919194D01*
X83567771Y-119005884D01*
X83379418Y-119131737D01*
X83219237Y-119291918D01*
X83191286Y-119333750D01*
X83192045Y-118177385D01*
X83219237Y-118218082D01*
X83379418Y-118378263D01*
X83567771Y-118504116D01*
X83777057Y-118590806D01*
X83999235Y-118635000D01*
X84225765Y-118635000D01*
X84447943Y-118590806D01*
X84657229Y-118504116D01*
X84845582Y-118378263D01*
X85005763Y-118218082D01*
X85131616Y-118029729D01*
X85218306Y-117820443D01*
X85262500Y-117598265D01*
X85262500Y-117371735D01*
X85218306Y-117149557D01*
X85131616Y-116940271D01*
X85005763Y-116751918D01*
X84845582Y-116591737D01*
X84657229Y-116465884D01*
X84447943Y-116379194D01*
X84225765Y-116335000D01*
X83999235Y-116335000D01*
X83777057Y-116379194D01*
X83567771Y-116465884D01*
X83379418Y-116591737D01*
X83219237Y-116751918D01*
X83192954Y-116791254D01*
X83193709Y-115639877D01*
X83219237Y-115678082D01*
X83379418Y-115838263D01*
X83567771Y-115964116D01*
X83777057Y-116050806D01*
X83999235Y-116095000D01*
X84225765Y-116095000D01*
X84447943Y-116050806D01*
X84657229Y-115964116D01*
X84845582Y-115838263D01*
X85005763Y-115678082D01*
X85131616Y-115489729D01*
X85201921Y-115320000D01*
X86094084Y-115320000D01*
X86112500Y-115321814D01*
X86130916Y-115320000D01*
X86130919Y-115320000D01*
X86186013Y-115314574D01*
X86256700Y-115293131D01*
X86321847Y-115258309D01*
X86378948Y-115211448D01*
X86379850Y-115210349D01*
X86380948Y-115209448D01*
X86427809Y-115152347D01*
X86458755Y-115094451D01*
X86664500Y-115094451D01*
X86723310Y-115088659D01*
X86779860Y-115071504D01*
X86831977Y-115043647D01*
X86877658Y-115006158D01*
X86915147Y-114960477D01*
X86943004Y-114908360D01*
X86960159Y-114851810D01*
X86965951Y-114793000D01*
X86965951Y-114193000D01*
X86960159Y-114134190D01*
X86943004Y-114077640D01*
X86915147Y-114025523D01*
X86877658Y-113979842D01*
X86831977Y-113942353D01*
X86779860Y-113914496D01*
X86723310Y-113897341D01*
X86664500Y-113891549D01*
X85564500Y-113891549D01*
X85505690Y-113897341D01*
X85449140Y-113914496D01*
X85397023Y-113942353D01*
X85351342Y-113979842D01*
X85313853Y-114025523D01*
X85285996Y-114077640D01*
X85268841Y-114134190D01*
X85263049Y-114193000D01*
X85263049Y-114570000D01*
X85201921Y-114570000D01*
X85131616Y-114400271D01*
X85005763Y-114211918D01*
X84845582Y-114051737D01*
X84657229Y-113925884D01*
X84447943Y-113839194D01*
X84225765Y-113795000D01*
X83999235Y-113795000D01*
X83777057Y-113839194D01*
X83567771Y-113925884D01*
X83379418Y-114051737D01*
X83219237Y-114211918D01*
X83194622Y-114248758D01*
X83195374Y-113102368D01*
X83219237Y-113138082D01*
X83379418Y-113298263D01*
X83567771Y-113424116D01*
X83777057Y-113510806D01*
X83999235Y-113555000D01*
X84225765Y-113555000D01*
X84447943Y-113510806D01*
X84657229Y-113424116D01*
X84845582Y-113298263D01*
X85005763Y-113138082D01*
X85131616Y-112949729D01*
X85218306Y-112740443D01*
X85262500Y-112518265D01*
X85262500Y-112291735D01*
X85218306Y-112069557D01*
X85148001Y-111899828D01*
X85223508Y-111824322D01*
X85257842Y-111866158D01*
G04 #@! TA.AperFunction,Conductor*
D26*
G36*
X85257842Y-111866158D02*
G01*
X85303523Y-111903647D01*
X85355640Y-111931504D01*
X85412190Y-111948659D01*
X85471000Y-111954451D01*
X85781627Y-111954451D01*
X85789006Y-111991549D01*
X85564500Y-111991549D01*
X85505690Y-111997341D01*
X85449140Y-112014496D01*
X85397023Y-112042353D01*
X85351342Y-112079842D01*
X85313853Y-112125523D01*
X85285996Y-112177640D01*
X85268841Y-112234190D01*
X85263049Y-112293000D01*
X85263049Y-112893000D01*
X85268841Y-112951810D01*
X85285996Y-113008360D01*
X85313853Y-113060477D01*
X85351342Y-113106158D01*
X85397023Y-113143647D01*
X85449140Y-113171504D01*
X85505690Y-113188659D01*
X85564500Y-113194451D01*
X86664500Y-113194451D01*
X86723310Y-113188659D01*
X86779860Y-113171504D01*
X86831977Y-113143647D01*
X86877658Y-113106158D01*
X86894695Y-113085398D01*
X86939464Y-113103942D01*
X87055383Y-113127000D01*
X87173573Y-113127000D01*
X87264489Y-113108916D01*
X87264488Y-116706350D01*
X87262674Y-116724766D01*
X87264488Y-116743182D01*
X87264488Y-116743184D01*
X87269914Y-116798278D01*
X87291357Y-116868965D01*
X87299101Y-116883453D01*
X87319178Y-116921016D01*
X87314883Y-116919713D01*
X87100001Y-116898549D01*
X87099999Y-116898549D01*
X86885117Y-116919713D01*
X86678492Y-116982392D01*
X86488066Y-117084177D01*
X86321156Y-117221157D01*
X86184176Y-117388067D01*
X86082391Y-117578493D01*
X86019712Y-117785118D01*
X85998548Y-118000000D01*
X85998548Y-119500000D01*
X86019712Y-119714882D01*
X86082391Y-119921507D01*
X86184176Y-120111933D01*
X86321156Y-120278843D01*
X86488066Y-120415823D01*
X86678492Y-120517608D01*
X86885117Y-120580287D01*
X87099999Y-120601451D01*
X87100001Y-120601451D01*
X87314883Y-120580287D01*
X87521508Y-120517608D01*
X87711934Y-120415823D01*
X87878844Y-120278843D01*
X88015824Y-120111933D01*
X88117609Y-119921507D01*
X88180288Y-119714882D01*
X88201452Y-119500000D01*
X88201452Y-119043781D01*
X90102670Y-120945000D01*
X84805567Y-120945000D01*
X84845582Y-120918263D01*
X85005763Y-120758082D01*
X85131616Y-120569729D01*
X85218306Y-120360443D01*
X85262500Y-120138265D01*
X85262500Y-119911735D01*
X85218306Y-119689557D01*
X85131616Y-119480271D01*
X85005763Y-119291918D01*
X84845582Y-119131737D01*
X84657229Y-119005884D01*
X84447943Y-118919194D01*
X84225765Y-118875000D01*
X83999235Y-118875000D01*
X83777057Y-118919194D01*
X83567771Y-119005884D01*
X83379418Y-119131737D01*
X83219237Y-119291918D01*
X83191286Y-119333750D01*
X83192045Y-118177385D01*
X83219237Y-118218082D01*
X83379418Y-118378263D01*
X83567771Y-118504116D01*
X83777057Y-118590806D01*
X83999235Y-118635000D01*
X84225765Y-118635000D01*
X84447943Y-118590806D01*
X84657229Y-118504116D01*
X84845582Y-118378263D01*
X85005763Y-118218082D01*
X85131616Y-118029729D01*
X85218306Y-117820443D01*
X85262500Y-117598265D01*
X85262500Y-117371735D01*
X85218306Y-117149557D01*
X85131616Y-116940271D01*
X85005763Y-116751918D01*
X84845582Y-116591737D01*
X84657229Y-116465884D01*
X84447943Y-116379194D01*
X84225765Y-116335000D01*
X83999235Y-116335000D01*
X83777057Y-116379194D01*
X83567771Y-116465884D01*
X83379418Y-116591737D01*
X83219237Y-116751918D01*
X83192954Y-116791254D01*
X83193709Y-115639877D01*
X83219237Y-115678082D01*
X83379418Y-115838263D01*
X83567771Y-115964116D01*
X83777057Y-116050806D01*
X83999235Y-116095000D01*
X84225765Y-116095000D01*
X84447943Y-116050806D01*
X84657229Y-115964116D01*
X84845582Y-115838263D01*
X85005763Y-115678082D01*
X85131616Y-115489729D01*
X85201921Y-115320000D01*
X86094084Y-115320000D01*
X86112500Y-115321814D01*
X86130916Y-115320000D01*
X86130919Y-115320000D01*
X86186013Y-115314574D01*
X86256700Y-115293131D01*
X86321847Y-115258309D01*
X86378948Y-115211448D01*
X86379850Y-115210349D01*
X86380948Y-115209448D01*
X86427809Y-115152347D01*
X86458755Y-115094451D01*
X86664500Y-115094451D01*
X86723310Y-115088659D01*
X86779860Y-115071504D01*
X86831977Y-115043647D01*
X86877658Y-115006158D01*
X86915147Y-114960477D01*
X86943004Y-114908360D01*
X86960159Y-114851810D01*
X86965951Y-114793000D01*
X86965951Y-114193000D01*
X86960159Y-114134190D01*
X86943004Y-114077640D01*
X86915147Y-114025523D01*
X86877658Y-113979842D01*
X86831977Y-113942353D01*
X86779860Y-113914496D01*
X86723310Y-113897341D01*
X86664500Y-113891549D01*
X85564500Y-113891549D01*
X85505690Y-113897341D01*
X85449140Y-113914496D01*
X85397023Y-113942353D01*
X85351342Y-113979842D01*
X85313853Y-114025523D01*
X85285996Y-114077640D01*
X85268841Y-114134190D01*
X85263049Y-114193000D01*
X85263049Y-114570000D01*
X85201921Y-114570000D01*
X85131616Y-114400271D01*
X85005763Y-114211918D01*
X84845582Y-114051737D01*
X84657229Y-113925884D01*
X84447943Y-113839194D01*
X84225765Y-113795000D01*
X83999235Y-113795000D01*
X83777057Y-113839194D01*
X83567771Y-113925884D01*
X83379418Y-114051737D01*
X83219237Y-114211918D01*
X83194622Y-114248758D01*
X83195374Y-113102368D01*
X83219237Y-113138082D01*
X83379418Y-113298263D01*
X83567771Y-113424116D01*
X83777057Y-113510806D01*
X83999235Y-113555000D01*
X84225765Y-113555000D01*
X84447943Y-113510806D01*
X84657229Y-113424116D01*
X84845582Y-113298263D01*
X85005763Y-113138082D01*
X85131616Y-112949729D01*
X85218306Y-112740443D01*
X85262500Y-112518265D01*
X85262500Y-112291735D01*
X85218306Y-112069557D01*
X85148001Y-111899828D01*
X85223508Y-111824322D01*
X85257842Y-111866158D01*
G37*
G04 #@! TD.AperFunction*
D25*
X94171521Y-113162051D02*
X94269792Y-113227714D01*
X94378985Y-113272943D01*
X94494904Y-113296001D01*
X94613094Y-113296001D01*
X94633549Y-113291932D01*
X94633549Y-113302000D01*
X92286414Y-113302000D01*
X92267998Y-113300186D01*
X92249582Y-113302000D01*
X92249579Y-113302000D01*
X92194485Y-113307426D01*
X92123798Y-113328869D01*
X92103105Y-113339930D01*
X92058651Y-113363690D01*
X92029827Y-113387346D01*
X92001550Y-113410552D01*
X91989807Y-113424861D01*
X90722865Y-114691804D01*
X90708551Y-114703551D01*
X90661690Y-114760653D01*
X90626868Y-114825800D01*
X90605425Y-114896487D01*
X90601451Y-114936842D01*
X90598185Y-114969999D01*
X90599999Y-114988415D01*
X90600000Y-117232000D01*
X88907328Y-117232000D01*
X88849999Y-117174672D01*
X88849999Y-117154415D01*
X88851813Y-117135999D01*
X88847498Y-117092188D01*
X88844573Y-117062486D01*
X88823130Y-116991799D01*
X88788308Y-116926652D01*
X88741447Y-116869551D01*
X88727140Y-116857810D01*
X88314499Y-116445168D01*
X88314499Y-115094451D01*
X89264500Y-115094451D01*
X89323310Y-115088659D01*
X89379860Y-115071504D01*
X89431977Y-115043647D01*
X89477658Y-115006158D01*
X89515147Y-114960477D01*
X89524489Y-114943000D01*
X89542406Y-114943000D01*
X89564500Y-114945176D01*
X89586594Y-114943000D01*
X89586605Y-114943000D01*
X89652715Y-114936489D01*
X89737541Y-114910757D01*
X89815716Y-114868971D01*
X89884237Y-114812737D01*
X89898329Y-114795566D01*
X91547895Y-113146001D01*
X94155471Y-113146001D01*
X94171521Y-113162051D01*
G04 #@! TA.AperFunction,Conductor*
D26*
G36*
X94171521Y-113162051D02*
G01*
X94269792Y-113227714D01*
X94378985Y-113272943D01*
X94494904Y-113296001D01*
X94613094Y-113296001D01*
X94633549Y-113291932D01*
X94633549Y-113302000D01*
X92286414Y-113302000D01*
X92267998Y-113300186D01*
X92249582Y-113302000D01*
X92249579Y-113302000D01*
X92194485Y-113307426D01*
X92123798Y-113328869D01*
X92103105Y-113339930D01*
X92058651Y-113363690D01*
X92029827Y-113387346D01*
X92001550Y-113410552D01*
X91989807Y-113424861D01*
X90722865Y-114691804D01*
X90708551Y-114703551D01*
X90661690Y-114760653D01*
X90626868Y-114825800D01*
X90605425Y-114896487D01*
X90601451Y-114936842D01*
X90598185Y-114969999D01*
X90599999Y-114988415D01*
X90600000Y-117232000D01*
X88907328Y-117232000D01*
X88849999Y-117174672D01*
X88849999Y-117154415D01*
X88851813Y-117135999D01*
X88847498Y-117092188D01*
X88844573Y-117062486D01*
X88823130Y-116991799D01*
X88788308Y-116926652D01*
X88741447Y-116869551D01*
X88727140Y-116857810D01*
X88314499Y-116445168D01*
X88314499Y-115094451D01*
X89264500Y-115094451D01*
X89323310Y-115088659D01*
X89379860Y-115071504D01*
X89431977Y-115043647D01*
X89477658Y-115006158D01*
X89515147Y-114960477D01*
X89524489Y-114943000D01*
X89542406Y-114943000D01*
X89564500Y-114945176D01*
X89586594Y-114943000D01*
X89586605Y-114943000D01*
X89652715Y-114936489D01*
X89737541Y-114910757D01*
X89815716Y-114868971D01*
X89884237Y-114812737D01*
X89898329Y-114795566D01*
X91547895Y-113146001D01*
X94155471Y-113146001D01*
X94171521Y-113162051D01*
G37*
G04 #@! TD.AperFunction*
D25*
X100994237Y-113138082D02*
X101154418Y-113298263D01*
X101342771Y-113424116D01*
X101552057Y-113510806D01*
X101774235Y-113555000D01*
X102000765Y-113555000D01*
X102222943Y-113510806D01*
X102432229Y-113424116D01*
X102620582Y-113298263D01*
X102780763Y-113138082D01*
X102804626Y-113102368D01*
X102805378Y-114248758D01*
X102780763Y-114211918D01*
X102620582Y-114051737D01*
X102432229Y-113925884D01*
X102222943Y-113839194D01*
X102000765Y-113795000D01*
X101774235Y-113795000D01*
X101552057Y-113839194D01*
X101342771Y-113925884D01*
X101154418Y-114051737D01*
X100994237Y-114211918D01*
X100868384Y-114400271D01*
X100847994Y-114449496D01*
X100823658Y-114419842D01*
X100777977Y-114382353D01*
X100725860Y-114354496D01*
X100669310Y-114337341D01*
X100610500Y-114331549D01*
X100110500Y-114331549D01*
X100051690Y-114337341D01*
X99995140Y-114354496D01*
X99943023Y-114382353D01*
X99897342Y-114419842D01*
X99860500Y-114464735D01*
X99823658Y-114419842D01*
X99777977Y-114382353D01*
X99725860Y-114354496D01*
X99669310Y-114337341D01*
X99610500Y-114331549D01*
X99110500Y-114331549D01*
X99051690Y-114337341D01*
X98995140Y-114354496D01*
X98943023Y-114382353D01*
X98897342Y-114419842D01*
X98859853Y-114465523D01*
X98831996Y-114517640D01*
X98814841Y-114574190D01*
X98809049Y-114633000D01*
X98809049Y-115254121D01*
X97201451Y-116861720D01*
X97201451Y-115150000D01*
X97195659Y-115091190D01*
X97178504Y-115034640D01*
X97150647Y-114982523D01*
X97132238Y-114960091D01*
X97387139Y-114705191D01*
X97401448Y-114693448D01*
X97431614Y-114656690D01*
X97448309Y-114636348D01*
X97481714Y-114573850D01*
X97493810Y-114572659D01*
X97550360Y-114555504D01*
X97602477Y-114527647D01*
X97648158Y-114490158D01*
X97685647Y-114444477D01*
X97713504Y-114392360D01*
X97730659Y-114335810D01*
X97736451Y-114277000D01*
X97736451Y-113518996D01*
X97749800Y-113526131D01*
X97767028Y-113531357D01*
X97792549Y-113556878D01*
X97792549Y-113928000D01*
X97798341Y-113986810D01*
X97815496Y-114043360D01*
X97843353Y-114095477D01*
X97880842Y-114141158D01*
X97926523Y-114178647D01*
X97978640Y-114206504D01*
X98035190Y-114223659D01*
X98094000Y-114229451D01*
X98594000Y-114229451D01*
X98652810Y-114223659D01*
X98709360Y-114206504D01*
X98761477Y-114178647D01*
X98807158Y-114141158D01*
X98844647Y-114095477D01*
X98872504Y-114043360D01*
X98889659Y-113986810D01*
X98894057Y-113942155D01*
X98897342Y-113946158D01*
X98943023Y-113983647D01*
X98995140Y-114011504D01*
X99051690Y-114028659D01*
X99110500Y-114034451D01*
X99610500Y-114034451D01*
X99669310Y-114028659D01*
X99725860Y-114011504D01*
X99777977Y-113983647D01*
X99823658Y-113946158D01*
X99860500Y-113901265D01*
X99897342Y-113946158D01*
X99943023Y-113983647D01*
X99995140Y-114011504D01*
X100051690Y-114028659D01*
X100110500Y-114034451D01*
X100610500Y-114034451D01*
X100669310Y-114028659D01*
X100725860Y-114011504D01*
X100777977Y-113983647D01*
X100823658Y-113946158D01*
X100861147Y-113900477D01*
X100889004Y-113848360D01*
X100906159Y-113791810D01*
X100911951Y-113733000D01*
X100911951Y-113014932D01*
X100994237Y-113138082D01*
G04 #@! TA.AperFunction,Conductor*
D26*
G36*
X100994237Y-113138082D02*
G01*
X101154418Y-113298263D01*
X101342771Y-113424116D01*
X101552057Y-113510806D01*
X101774235Y-113555000D01*
X102000765Y-113555000D01*
X102222943Y-113510806D01*
X102432229Y-113424116D01*
X102620582Y-113298263D01*
X102780763Y-113138082D01*
X102804626Y-113102368D01*
X102805378Y-114248758D01*
X102780763Y-114211918D01*
X102620582Y-114051737D01*
X102432229Y-113925884D01*
X102222943Y-113839194D01*
X102000765Y-113795000D01*
X101774235Y-113795000D01*
X101552057Y-113839194D01*
X101342771Y-113925884D01*
X101154418Y-114051737D01*
X100994237Y-114211918D01*
X100868384Y-114400271D01*
X100847994Y-114449496D01*
X100823658Y-114419842D01*
X100777977Y-114382353D01*
X100725860Y-114354496D01*
X100669310Y-114337341D01*
X100610500Y-114331549D01*
X100110500Y-114331549D01*
X100051690Y-114337341D01*
X99995140Y-114354496D01*
X99943023Y-114382353D01*
X99897342Y-114419842D01*
X99860500Y-114464735D01*
X99823658Y-114419842D01*
X99777977Y-114382353D01*
X99725860Y-114354496D01*
X99669310Y-114337341D01*
X99610500Y-114331549D01*
X99110500Y-114331549D01*
X99051690Y-114337341D01*
X98995140Y-114354496D01*
X98943023Y-114382353D01*
X98897342Y-114419842D01*
X98859853Y-114465523D01*
X98831996Y-114517640D01*
X98814841Y-114574190D01*
X98809049Y-114633000D01*
X98809049Y-115254121D01*
X97201451Y-116861720D01*
X97201451Y-115150000D01*
X97195659Y-115091190D01*
X97178504Y-115034640D01*
X97150647Y-114982523D01*
X97132238Y-114960091D01*
X97387139Y-114705191D01*
X97401448Y-114693448D01*
X97431614Y-114656690D01*
X97448309Y-114636348D01*
X97481714Y-114573850D01*
X97493810Y-114572659D01*
X97550360Y-114555504D01*
X97602477Y-114527647D01*
X97648158Y-114490158D01*
X97685647Y-114444477D01*
X97713504Y-114392360D01*
X97730659Y-114335810D01*
X97736451Y-114277000D01*
X97736451Y-113518996D01*
X97749800Y-113526131D01*
X97767028Y-113531357D01*
X97792549Y-113556878D01*
X97792549Y-113928000D01*
X97798341Y-113986810D01*
X97815496Y-114043360D01*
X97843353Y-114095477D01*
X97880842Y-114141158D01*
X97926523Y-114178647D01*
X97978640Y-114206504D01*
X98035190Y-114223659D01*
X98094000Y-114229451D01*
X98594000Y-114229451D01*
X98652810Y-114223659D01*
X98709360Y-114206504D01*
X98761477Y-114178647D01*
X98807158Y-114141158D01*
X98844647Y-114095477D01*
X98872504Y-114043360D01*
X98889659Y-113986810D01*
X98894057Y-113942155D01*
X98897342Y-113946158D01*
X98943023Y-113983647D01*
X98995140Y-114011504D01*
X99051690Y-114028659D01*
X99110500Y-114034451D01*
X99610500Y-114034451D01*
X99669310Y-114028659D01*
X99725860Y-114011504D01*
X99777977Y-113983647D01*
X99823658Y-113946158D01*
X99860500Y-113901265D01*
X99897342Y-113946158D01*
X99943023Y-113983647D01*
X99995140Y-114011504D01*
X100051690Y-114028659D01*
X100110500Y-114034451D01*
X100610500Y-114034451D01*
X100669310Y-114028659D01*
X100725860Y-114011504D01*
X100777977Y-113983647D01*
X100823658Y-113946158D01*
X100861147Y-113900477D01*
X100889004Y-113848360D01*
X100906159Y-113791810D01*
X100911951Y-113733000D01*
X100911951Y-113014932D01*
X100994237Y-113138082D01*
G37*
G04 #@! TD.AperFunction*
D25*
X96667523Y-112227647D02*
X96719640Y-112255504D01*
X96760001Y-112267748D01*
X96760001Y-112400574D01*
X96758186Y-112419000D01*
X96762272Y-112460477D01*
X96765427Y-112492513D01*
X96775733Y-112526486D01*
X96786870Y-112563200D01*
X96821691Y-112628346D01*
X96828661Y-112636839D01*
X96868553Y-112685448D01*
X96882862Y-112697191D01*
X96961220Y-112775549D01*
X96835000Y-112775549D01*
X96776190Y-112781341D01*
X96719640Y-112798496D01*
X96667523Y-112826353D01*
X96621842Y-112863842D01*
X96584353Y-112909523D01*
X96556496Y-112961640D01*
X96539341Y-113018190D01*
X96533549Y-113077000D01*
X96533549Y-114277000D01*
X96539341Y-114335810D01*
X96556496Y-114392360D01*
X96580891Y-114438000D01*
X95789109Y-114438000D01*
X95813504Y-114392360D01*
X95830659Y-114335810D01*
X95836451Y-114277000D01*
X95836451Y-113141239D01*
X95854214Y-113139490D01*
X95939040Y-113113758D01*
X96017215Y-113071972D01*
X96085736Y-113015738D01*
X96099827Y-112998568D01*
X96487572Y-112610824D01*
X96504737Y-112596737D01*
X96518824Y-112579572D01*
X96518828Y-112579568D01*
X96560971Y-112528217D01*
X96602757Y-112450041D01*
X96604351Y-112444785D01*
X96628489Y-112365215D01*
X96635000Y-112299105D01*
X96635000Y-112299095D01*
X96637176Y-112277000D01*
X96635000Y-112254906D01*
X96635000Y-112236989D01*
X96652477Y-112227647D01*
X96660000Y-112221473D01*
X96667523Y-112227647D01*
G04 #@! TA.AperFunction,Conductor*
D26*
G36*
X96667523Y-112227647D02*
G01*
X96719640Y-112255504D01*
X96760001Y-112267748D01*
X96760001Y-112400574D01*
X96758186Y-112419000D01*
X96762272Y-112460477D01*
X96765427Y-112492513D01*
X96775733Y-112526486D01*
X96786870Y-112563200D01*
X96821691Y-112628346D01*
X96828661Y-112636839D01*
X96868553Y-112685448D01*
X96882862Y-112697191D01*
X96961220Y-112775549D01*
X96835000Y-112775549D01*
X96776190Y-112781341D01*
X96719640Y-112798496D01*
X96667523Y-112826353D01*
X96621842Y-112863842D01*
X96584353Y-112909523D01*
X96556496Y-112961640D01*
X96539341Y-113018190D01*
X96533549Y-113077000D01*
X96533549Y-114277000D01*
X96539341Y-114335810D01*
X96556496Y-114392360D01*
X96580891Y-114438000D01*
X95789109Y-114438000D01*
X95813504Y-114392360D01*
X95830659Y-114335810D01*
X95836451Y-114277000D01*
X95836451Y-113141239D01*
X95854214Y-113139490D01*
X95939040Y-113113758D01*
X96017215Y-113071972D01*
X96085736Y-113015738D01*
X96099827Y-112998568D01*
X96487572Y-112610824D01*
X96504737Y-112596737D01*
X96518824Y-112579572D01*
X96518828Y-112579568D01*
X96560971Y-112528217D01*
X96602757Y-112450041D01*
X96604351Y-112444785D01*
X96628489Y-112365215D01*
X96635000Y-112299105D01*
X96635000Y-112299095D01*
X96637176Y-112277000D01*
X96635000Y-112254906D01*
X96635000Y-112236989D01*
X96652477Y-112227647D01*
X96660000Y-112221473D01*
X96667523Y-112227647D01*
G37*
G04 #@! TD.AperFunction*
D25*
X92157749Y-110134379D02*
X92157749Y-110205500D01*
X92163541Y-110264310D01*
X92180696Y-110320860D01*
X92208553Y-110372977D01*
X92208572Y-110373000D01*
X92208553Y-110373023D01*
X92180696Y-110425140D01*
X92163541Y-110481690D01*
X92157749Y-110540500D01*
X92157749Y-110840500D01*
X92163541Y-110899310D01*
X92180696Y-110955860D01*
X92208553Y-111007977D01*
X92208572Y-111008000D01*
X92208553Y-111008023D01*
X92180696Y-111060140D01*
X92163541Y-111116690D01*
X92157749Y-111175500D01*
X92157749Y-111475500D01*
X92163541Y-111534310D01*
X92180696Y-111590860D01*
X92208553Y-111642977D01*
X92246042Y-111688658D01*
X92291723Y-111726147D01*
X92343840Y-111754004D01*
X92400390Y-111771159D01*
X92459200Y-111776951D01*
X93237468Y-111776951D01*
X93235496Y-111780640D01*
X93218341Y-111837190D01*
X93212549Y-111896000D01*
X93212549Y-112246001D01*
X91383590Y-112246001D01*
X91361498Y-112243825D01*
X91339406Y-112246001D01*
X91339394Y-112246001D01*
X91273284Y-112252512D01*
X91192559Y-112277000D01*
X91188458Y-112278244D01*
X91110282Y-112320030D01*
X91058931Y-112362173D01*
X91058927Y-112362177D01*
X91041762Y-112376264D01*
X91027675Y-112393429D01*
X89457668Y-113963437D01*
X89431977Y-113942353D01*
X89379860Y-113914496D01*
X89323310Y-113897341D01*
X89264500Y-113891549D01*
X89164500Y-113891549D01*
X89164500Y-113194451D01*
X89264500Y-113194451D01*
X89323310Y-113188659D01*
X89379860Y-113171504D01*
X89431977Y-113143647D01*
X89477658Y-113106158D01*
X89515147Y-113060477D01*
X89543004Y-113008360D01*
X89560159Y-112951810D01*
X89565951Y-112893000D01*
X89565951Y-112293000D01*
X89560159Y-112234190D01*
X89543004Y-112177640D01*
X89515147Y-112125523D01*
X89477658Y-112079842D01*
X89431977Y-112042353D01*
X89379860Y-112014496D01*
X89323310Y-111997341D01*
X89264500Y-111991549D01*
X88360780Y-111991549D01*
X90754330Y-109598000D01*
X90773246Y-109598000D01*
X90869845Y-109578785D01*
X90960839Y-109541094D01*
X91042731Y-109486375D01*
X91112375Y-109416731D01*
X91167094Y-109334839D01*
X91204785Y-109243845D01*
X91215143Y-109191772D01*
X92157749Y-110134379D01*
G04 #@! TA.AperFunction,Conductor*
D26*
G36*
X92157749Y-110134379D02*
G01*
X92157749Y-110205500D01*
X92163541Y-110264310D01*
X92180696Y-110320860D01*
X92208553Y-110372977D01*
X92208572Y-110373000D01*
X92208553Y-110373023D01*
X92180696Y-110425140D01*
X92163541Y-110481690D01*
X92157749Y-110540500D01*
X92157749Y-110840500D01*
X92163541Y-110899310D01*
X92180696Y-110955860D01*
X92208553Y-111007977D01*
X92208572Y-111008000D01*
X92208553Y-111008023D01*
X92180696Y-111060140D01*
X92163541Y-111116690D01*
X92157749Y-111175500D01*
X92157749Y-111475500D01*
X92163541Y-111534310D01*
X92180696Y-111590860D01*
X92208553Y-111642977D01*
X92246042Y-111688658D01*
X92291723Y-111726147D01*
X92343840Y-111754004D01*
X92400390Y-111771159D01*
X92459200Y-111776951D01*
X93237468Y-111776951D01*
X93235496Y-111780640D01*
X93218341Y-111837190D01*
X93212549Y-111896000D01*
X93212549Y-112246001D01*
X91383590Y-112246001D01*
X91361498Y-112243825D01*
X91339406Y-112246001D01*
X91339394Y-112246001D01*
X91273284Y-112252512D01*
X91192559Y-112277000D01*
X91188458Y-112278244D01*
X91110282Y-112320030D01*
X91058931Y-112362173D01*
X91058927Y-112362177D01*
X91041762Y-112376264D01*
X91027675Y-112393429D01*
X89457668Y-113963437D01*
X89431977Y-113942353D01*
X89379860Y-113914496D01*
X89323310Y-113897341D01*
X89264500Y-113891549D01*
X89164500Y-113891549D01*
X89164500Y-113194451D01*
X89264500Y-113194451D01*
X89323310Y-113188659D01*
X89379860Y-113171504D01*
X89431977Y-113143647D01*
X89477658Y-113106158D01*
X89515147Y-113060477D01*
X89543004Y-113008360D01*
X89560159Y-112951810D01*
X89565951Y-112893000D01*
X89565951Y-112293000D01*
X89560159Y-112234190D01*
X89543004Y-112177640D01*
X89515147Y-112125523D01*
X89477658Y-112079842D01*
X89431977Y-112042353D01*
X89379860Y-112014496D01*
X89323310Y-111997341D01*
X89264500Y-111991549D01*
X88360780Y-111991549D01*
X90754330Y-109598000D01*
X90773246Y-109598000D01*
X90869845Y-109578785D01*
X90960839Y-109541094D01*
X91042731Y-109486375D01*
X91112375Y-109416731D01*
X91167094Y-109334839D01*
X91204785Y-109243845D01*
X91215143Y-109191772D01*
X92157749Y-110134379D01*
G37*
G04 #@! TD.AperFunction*
D25*
X97792549Y-110888445D02*
X97792549Y-111388000D01*
X97798341Y-111446810D01*
X97815496Y-111503360D01*
X97843353Y-111555477D01*
X97880842Y-111601158D01*
X97926523Y-111638647D01*
X97978640Y-111666504D01*
X98035190Y-111683659D01*
X98094000Y-111689451D01*
X98594000Y-111689451D01*
X98652810Y-111683659D01*
X98709360Y-111666504D01*
X98753333Y-111643000D01*
X98884235Y-111643000D01*
X98839342Y-111679842D01*
X98801853Y-111725523D01*
X98773996Y-111777640D01*
X98756841Y-111834190D01*
X98751049Y-111893000D01*
X98751049Y-112293000D01*
X98756841Y-112351810D01*
X98773996Y-112408360D01*
X98801853Y-112460477D01*
X98839342Y-112506158D01*
X98885023Y-112543647D01*
X98937140Y-112571504D01*
X98977500Y-112583748D01*
X98977500Y-112613925D01*
X98943023Y-112632353D01*
X98897342Y-112669842D01*
X98859853Y-112715523D01*
X98831996Y-112767640D01*
X98814841Y-112824190D01*
X98809049Y-112883000D01*
X98809049Y-113117146D01*
X98807158Y-113114842D01*
X98761477Y-113077353D01*
X98709360Y-113049496D01*
X98652810Y-113032341D01*
X98594000Y-113026549D01*
X98322878Y-113026549D01*
X98222195Y-112925866D01*
X98210448Y-112911552D01*
X98153347Y-112864691D01*
X98088200Y-112829869D01*
X98070973Y-112824643D01*
X97967718Y-112721388D01*
X97970375Y-112718731D01*
X98025094Y-112636839D01*
X98062785Y-112545845D01*
X98082000Y-112449246D01*
X98082000Y-112350754D01*
X98062785Y-112254155D01*
X98025094Y-112163161D01*
X97970375Y-112081269D01*
X97900731Y-112011625D01*
X97818839Y-111956906D01*
X97736451Y-111922780D01*
X97736451Y-110832347D01*
X97792549Y-110888445D01*
G04 #@! TA.AperFunction,Conductor*
D26*
G36*
X97792549Y-110888445D02*
G01*
X97792549Y-111388000D01*
X97798341Y-111446810D01*
X97815496Y-111503360D01*
X97843353Y-111555477D01*
X97880842Y-111601158D01*
X97926523Y-111638647D01*
X97978640Y-111666504D01*
X98035190Y-111683659D01*
X98094000Y-111689451D01*
X98594000Y-111689451D01*
X98652810Y-111683659D01*
X98709360Y-111666504D01*
X98753333Y-111643000D01*
X98884235Y-111643000D01*
X98839342Y-111679842D01*
X98801853Y-111725523D01*
X98773996Y-111777640D01*
X98756841Y-111834190D01*
X98751049Y-111893000D01*
X98751049Y-112293000D01*
X98756841Y-112351810D01*
X98773996Y-112408360D01*
X98801853Y-112460477D01*
X98839342Y-112506158D01*
X98885023Y-112543647D01*
X98937140Y-112571504D01*
X98977500Y-112583748D01*
X98977500Y-112613925D01*
X98943023Y-112632353D01*
X98897342Y-112669842D01*
X98859853Y-112715523D01*
X98831996Y-112767640D01*
X98814841Y-112824190D01*
X98809049Y-112883000D01*
X98809049Y-113117146D01*
X98807158Y-113114842D01*
X98761477Y-113077353D01*
X98709360Y-113049496D01*
X98652810Y-113032341D01*
X98594000Y-113026549D01*
X98322878Y-113026549D01*
X98222195Y-112925866D01*
X98210448Y-112911552D01*
X98153347Y-112864691D01*
X98088200Y-112829869D01*
X98070973Y-112824643D01*
X97967718Y-112721388D01*
X97970375Y-112718731D01*
X98025094Y-112636839D01*
X98062785Y-112545845D01*
X98082000Y-112449246D01*
X98082000Y-112350754D01*
X98062785Y-112254155D01*
X98025094Y-112163161D01*
X97970375Y-112081269D01*
X97900731Y-112011625D01*
X97818839Y-111956906D01*
X97736451Y-111922780D01*
X97736451Y-110832347D01*
X97792549Y-110888445D01*
G37*
G04 #@! TD.AperFunction*
D25*
X90630228Y-108606857D02*
X90578155Y-108617215D01*
X90487161Y-108654906D01*
X90405269Y-108709625D01*
X90335625Y-108779269D01*
X90280906Y-108861161D01*
X90243215Y-108952155D01*
X90224000Y-109048754D01*
X90224000Y-109067670D01*
X88064801Y-111226870D01*
X88064801Y-111083917D01*
X88066615Y-111065501D01*
X88064088Y-111039842D01*
X88059375Y-110991988D01*
X88037932Y-110921301D01*
X88026464Y-110899846D01*
X88003111Y-110856154D01*
X87976224Y-110823393D01*
X87956249Y-110799053D01*
X87941940Y-110787310D01*
X87766251Y-110611622D01*
X87766251Y-110540500D01*
X87760459Y-110481690D01*
X87743304Y-110425140D01*
X87715447Y-110373023D01*
X87715428Y-110373000D01*
X87715447Y-110372977D01*
X87743304Y-110320860D01*
X87760459Y-110264310D01*
X87766251Y-110205500D01*
X87766251Y-109905500D01*
X87760459Y-109846690D01*
X87743304Y-109790140D01*
X87715447Y-109738023D01*
X87677958Y-109692342D01*
X87632277Y-109654853D01*
X87580160Y-109626996D01*
X87523610Y-109609841D01*
X87464800Y-109604049D01*
X86464800Y-109604049D01*
X86405990Y-109609841D01*
X86349440Y-109626996D01*
X86297323Y-109654853D01*
X86251642Y-109692342D01*
X86214153Y-109738023D01*
X86186296Y-109790140D01*
X86169141Y-109846690D01*
X86163349Y-109905500D01*
X86163349Y-110067515D01*
X86129810Y-110057341D01*
X86071000Y-110051549D01*
X85879080Y-110051549D01*
X86693679Y-109236951D01*
X87464800Y-109236951D01*
X87523610Y-109231159D01*
X87580160Y-109214004D01*
X87632277Y-109186147D01*
X87677958Y-109148658D01*
X87715447Y-109102977D01*
X87743304Y-109050860D01*
X87760459Y-108994310D01*
X87766251Y-108935500D01*
X87766251Y-108635500D01*
X87760459Y-108576690D01*
X87744930Y-108525500D01*
X90548871Y-108525500D01*
X90630228Y-108606857D01*
G04 #@! TA.AperFunction,Conductor*
D26*
G36*
X90630228Y-108606857D02*
G01*
X90578155Y-108617215D01*
X90487161Y-108654906D01*
X90405269Y-108709625D01*
X90335625Y-108779269D01*
X90280906Y-108861161D01*
X90243215Y-108952155D01*
X90224000Y-109048754D01*
X90224000Y-109067670D01*
X88064801Y-111226870D01*
X88064801Y-111083917D01*
X88066615Y-111065501D01*
X88064088Y-111039842D01*
X88059375Y-110991988D01*
X88037932Y-110921301D01*
X88026464Y-110899846D01*
X88003111Y-110856154D01*
X87976224Y-110823393D01*
X87956249Y-110799053D01*
X87941940Y-110787310D01*
X87766251Y-110611622D01*
X87766251Y-110540500D01*
X87760459Y-110481690D01*
X87743304Y-110425140D01*
X87715447Y-110373023D01*
X87715428Y-110373000D01*
X87715447Y-110372977D01*
X87743304Y-110320860D01*
X87760459Y-110264310D01*
X87766251Y-110205500D01*
X87766251Y-109905500D01*
X87760459Y-109846690D01*
X87743304Y-109790140D01*
X87715447Y-109738023D01*
X87677958Y-109692342D01*
X87632277Y-109654853D01*
X87580160Y-109626996D01*
X87523610Y-109609841D01*
X87464800Y-109604049D01*
X86464800Y-109604049D01*
X86405990Y-109609841D01*
X86349440Y-109626996D01*
X86297323Y-109654853D01*
X86251642Y-109692342D01*
X86214153Y-109738023D01*
X86186296Y-109790140D01*
X86169141Y-109846690D01*
X86163349Y-109905500D01*
X86163349Y-110067515D01*
X86129810Y-110057341D01*
X86071000Y-110051549D01*
X85879080Y-110051549D01*
X86693679Y-109236951D01*
X87464800Y-109236951D01*
X87523610Y-109231159D01*
X87580160Y-109214004D01*
X87632277Y-109186147D01*
X87677958Y-109148658D01*
X87715447Y-109102977D01*
X87743304Y-109050860D01*
X87760459Y-108994310D01*
X87766251Y-108935500D01*
X87766251Y-108635500D01*
X87760459Y-108576690D01*
X87744930Y-108525500D01*
X90548871Y-108525500D01*
X90630228Y-108606857D01*
G37*
G04 #@! TD.AperFunction*
D25*
X86179662Y-108393992D02*
X86186296Y-108415860D01*
X86214153Y-108467977D01*
X86214172Y-108468000D01*
X86214153Y-108468023D01*
X86186296Y-108520140D01*
X86169141Y-108576690D01*
X86163349Y-108635500D01*
X86163349Y-108706621D01*
X85238565Y-109631406D01*
X85218306Y-109529557D01*
X85148001Y-109359828D01*
X85240688Y-109267142D01*
X85240693Y-109267136D01*
X85439635Y-109068194D01*
X85453949Y-109056447D01*
X85500810Y-108999346D01*
X85535632Y-108934199D01*
X85557075Y-108863512D01*
X85562501Y-108808418D01*
X85562501Y-108808415D01*
X85564315Y-108789999D01*
X85562501Y-108771583D01*
X85562501Y-108006451D01*
X85792122Y-108006451D01*
X86179662Y-108393992D01*
G04 #@! TA.AperFunction,Conductor*
D26*
G36*
X86179662Y-108393992D02*
G01*
X86186296Y-108415860D01*
X86214153Y-108467977D01*
X86214172Y-108468000D01*
X86214153Y-108468023D01*
X86186296Y-108520140D01*
X86169141Y-108576690D01*
X86163349Y-108635500D01*
X86163349Y-108706621D01*
X85238565Y-109631406D01*
X85218306Y-109529557D01*
X85148001Y-109359828D01*
X85240688Y-109267142D01*
X85240693Y-109267136D01*
X85439635Y-109068194D01*
X85453949Y-109056447D01*
X85500810Y-108999346D01*
X85535632Y-108934199D01*
X85557075Y-108863512D01*
X85562501Y-108808418D01*
X85562501Y-108808415D01*
X85564315Y-108789999D01*
X85562501Y-108771583D01*
X85562501Y-108006451D01*
X85792122Y-108006451D01*
X86179662Y-108393992D01*
G37*
G04 #@! TD.AperFunction*
D25*
X96680342Y-107542158D02*
X96726023Y-107579647D01*
X96778140Y-107607504D01*
X96834690Y-107624659D01*
X96893500Y-107630451D01*
X97493500Y-107630451D01*
X97552310Y-107624659D01*
X97608860Y-107607504D01*
X97660977Y-107579647D01*
X97701500Y-107546391D01*
X97741235Y-107579000D01*
X97696342Y-107615842D01*
X97658853Y-107661523D01*
X97630996Y-107713640D01*
X97613841Y-107770190D01*
X97608049Y-107829000D01*
X97608049Y-108229000D01*
X97613841Y-108287810D01*
X97630996Y-108344360D01*
X97658853Y-108396477D01*
X97696342Y-108442158D01*
X97742023Y-108479647D01*
X97759500Y-108488989D01*
X97759500Y-108551104D01*
X97759501Y-108551114D01*
X97759500Y-109432549D01*
X97324500Y-109432549D01*
X97265690Y-109438341D01*
X97209140Y-109455496D01*
X97157023Y-109483353D01*
X97111342Y-109520842D01*
X97073853Y-109566523D01*
X97066500Y-109580280D01*
X97059147Y-109566523D01*
X97021658Y-109520842D01*
X96975977Y-109483353D01*
X96923860Y-109455496D01*
X96867310Y-109438341D01*
X96808500Y-109432549D01*
X96308500Y-109432549D01*
X96249690Y-109438341D01*
X96193140Y-109455496D01*
X96141023Y-109483353D01*
X96115332Y-109504437D01*
X95728828Y-109117933D01*
X95714737Y-109100763D01*
X95646216Y-109044529D01*
X95568041Y-109002743D01*
X95483215Y-108977011D01*
X95417105Y-108970500D01*
X95417094Y-108970500D01*
X95395000Y-108968324D01*
X95372906Y-108970500D01*
X93473933Y-108970500D01*
X93459200Y-108969049D01*
X92459200Y-108969049D01*
X92400390Y-108974841D01*
X92343840Y-108991996D01*
X92291723Y-109019853D01*
X92246042Y-109057342D01*
X92208553Y-109103023D01*
X92201064Y-109117034D01*
X91769430Y-108685401D01*
X91849839Y-108652094D01*
X91931731Y-108597375D01*
X92001375Y-108527731D01*
X92002866Y-108525500D01*
X92260472Y-108525500D01*
X92291723Y-108551147D01*
X92343840Y-108579004D01*
X92400390Y-108596159D01*
X92459200Y-108601951D01*
X93459200Y-108601951D01*
X93518010Y-108596159D01*
X93574560Y-108579004D01*
X93626677Y-108551147D01*
X93672358Y-108513658D01*
X93709847Y-108467977D01*
X93737704Y-108415860D01*
X93754859Y-108359310D01*
X93760651Y-108300500D01*
X93760651Y-108000500D01*
X93754859Y-107941690D01*
X93739330Y-107890500D01*
X96098084Y-107890500D01*
X96116500Y-107892314D01*
X96134916Y-107890500D01*
X96134919Y-107890500D01*
X96190013Y-107885074D01*
X96260700Y-107863631D01*
X96325847Y-107828809D01*
X96382948Y-107781948D01*
X96394695Y-107767634D01*
X96653220Y-107509110D01*
X96680342Y-107542158D01*
G04 #@! TA.AperFunction,Conductor*
D26*
G36*
X96680342Y-107542158D02*
G01*
X96726023Y-107579647D01*
X96778140Y-107607504D01*
X96834690Y-107624659D01*
X96893500Y-107630451D01*
X97493500Y-107630451D01*
X97552310Y-107624659D01*
X97608860Y-107607504D01*
X97660977Y-107579647D01*
X97701500Y-107546391D01*
X97741235Y-107579000D01*
X97696342Y-107615842D01*
X97658853Y-107661523D01*
X97630996Y-107713640D01*
X97613841Y-107770190D01*
X97608049Y-107829000D01*
X97608049Y-108229000D01*
X97613841Y-108287810D01*
X97630996Y-108344360D01*
X97658853Y-108396477D01*
X97696342Y-108442158D01*
X97742023Y-108479647D01*
X97759500Y-108488989D01*
X97759500Y-108551104D01*
X97759501Y-108551114D01*
X97759500Y-109432549D01*
X97324500Y-109432549D01*
X97265690Y-109438341D01*
X97209140Y-109455496D01*
X97157023Y-109483353D01*
X97111342Y-109520842D01*
X97073853Y-109566523D01*
X97066500Y-109580280D01*
X97059147Y-109566523D01*
X97021658Y-109520842D01*
X96975977Y-109483353D01*
X96923860Y-109455496D01*
X96867310Y-109438341D01*
X96808500Y-109432549D01*
X96308500Y-109432549D01*
X96249690Y-109438341D01*
X96193140Y-109455496D01*
X96141023Y-109483353D01*
X96115332Y-109504437D01*
X95728828Y-109117933D01*
X95714737Y-109100763D01*
X95646216Y-109044529D01*
X95568041Y-109002743D01*
X95483215Y-108977011D01*
X95417105Y-108970500D01*
X95417094Y-108970500D01*
X95395000Y-108968324D01*
X95372906Y-108970500D01*
X93473933Y-108970500D01*
X93459200Y-108969049D01*
X92459200Y-108969049D01*
X92400390Y-108974841D01*
X92343840Y-108991996D01*
X92291723Y-109019853D01*
X92246042Y-109057342D01*
X92208553Y-109103023D01*
X92201064Y-109117034D01*
X91769430Y-108685401D01*
X91849839Y-108652094D01*
X91931731Y-108597375D01*
X92001375Y-108527731D01*
X92002866Y-108525500D01*
X92260472Y-108525500D01*
X92291723Y-108551147D01*
X92343840Y-108579004D01*
X92400390Y-108596159D01*
X92459200Y-108601951D01*
X93459200Y-108601951D01*
X93518010Y-108596159D01*
X93574560Y-108579004D01*
X93626677Y-108551147D01*
X93672358Y-108513658D01*
X93709847Y-108467977D01*
X93737704Y-108415860D01*
X93754859Y-108359310D01*
X93760651Y-108300500D01*
X93760651Y-108000500D01*
X93754859Y-107941690D01*
X93739330Y-107890500D01*
X96098084Y-107890500D01*
X96116500Y-107892314D01*
X96134916Y-107890500D01*
X96134919Y-107890500D01*
X96190013Y-107885074D01*
X96260700Y-107863631D01*
X96325847Y-107828809D01*
X96382948Y-107781948D01*
X96394695Y-107767634D01*
X96653220Y-107509110D01*
X96680342Y-107542158D01*
G37*
G04 #@! TD.AperFunction*
D25*
X83338924Y-106513241D02*
X84112500Y-107286816D01*
X84126642Y-107272674D01*
X84164826Y-107310858D01*
X84150684Y-107325000D01*
X84164826Y-107339142D01*
X84126642Y-107377326D01*
X84112500Y-107363184D01*
X83338924Y-108136759D01*
X83423403Y-108319396D01*
X83630640Y-108434726D01*
X83856396Y-108507408D01*
X84091993Y-108534653D01*
X84328378Y-108515410D01*
X84556468Y-108450421D01*
X84767495Y-108342182D01*
X84801597Y-108319396D01*
X84812502Y-108295821D01*
X84812502Y-108634669D01*
X84710364Y-108736807D01*
X84710358Y-108736812D01*
X84617672Y-108829499D01*
X84447943Y-108759194D01*
X84225765Y-108715000D01*
X83999235Y-108715000D01*
X83777057Y-108759194D01*
X83567771Y-108845884D01*
X83379418Y-108971737D01*
X83219237Y-109131918D01*
X83197957Y-109163765D01*
X83198687Y-108051371D01*
X83300741Y-108098576D01*
X84074316Y-107325000D01*
X83300741Y-106551424D01*
X83199640Y-106598188D01*
X83199770Y-106400000D01*
X83391304Y-106400000D01*
X83338924Y-106513241D01*
G04 #@! TA.AperFunction,Conductor*
D26*
G36*
X83338924Y-106513241D02*
G01*
X84112500Y-107286816D01*
X84126642Y-107272674D01*
X84164826Y-107310858D01*
X84150684Y-107325000D01*
X84164826Y-107339142D01*
X84126642Y-107377326D01*
X84112500Y-107363184D01*
X83338924Y-108136759D01*
X83423403Y-108319396D01*
X83630640Y-108434726D01*
X83856396Y-108507408D01*
X84091993Y-108534653D01*
X84328378Y-108515410D01*
X84556468Y-108450421D01*
X84767495Y-108342182D01*
X84801597Y-108319396D01*
X84812502Y-108295821D01*
X84812502Y-108634669D01*
X84710364Y-108736807D01*
X84710358Y-108736812D01*
X84617672Y-108829499D01*
X84447943Y-108759194D01*
X84225765Y-108715000D01*
X83999235Y-108715000D01*
X83777057Y-108759194D01*
X83567771Y-108845884D01*
X83379418Y-108971737D01*
X83219237Y-109131918D01*
X83197957Y-109163765D01*
X83198687Y-108051371D01*
X83300741Y-108098576D01*
X84074316Y-107325000D01*
X83300741Y-106551424D01*
X83199640Y-106598188D01*
X83199770Y-106400000D01*
X83391304Y-106400000D01*
X83338924Y-106513241D01*
G37*
G04 #@! TD.AperFunction*
D25*
X98689549Y-106408000D02*
X98689549Y-106688670D01*
X98676977Y-106678353D01*
X98624860Y-106650496D01*
X98568310Y-106633341D01*
X98509500Y-106627549D01*
X97909500Y-106627549D01*
X97850690Y-106633341D01*
X97794140Y-106650496D01*
X97742023Y-106678353D01*
X97701500Y-106711609D01*
X97660977Y-106678353D01*
X97608860Y-106650496D01*
X97552310Y-106633341D01*
X97493500Y-106627549D01*
X96893500Y-106627549D01*
X96834690Y-106633341D01*
X96778140Y-106650496D01*
X96726023Y-106678353D01*
X96680342Y-106715842D01*
X96649027Y-106754000D01*
X96521416Y-106754000D01*
X96503000Y-106752186D01*
X96484584Y-106754000D01*
X96484581Y-106754000D01*
X96429487Y-106759426D01*
X96358800Y-106780869D01*
X96342005Y-106789846D01*
X96293653Y-106815690D01*
X96265487Y-106838806D01*
X96236552Y-106862552D01*
X96224809Y-106876861D01*
X95961171Y-107140500D01*
X93739330Y-107140500D01*
X93754859Y-107089310D01*
X93760651Y-107030500D01*
X93760651Y-106730500D01*
X93754859Y-106671690D01*
X93737704Y-106615140D01*
X93709847Y-106563023D01*
X93672358Y-106517342D01*
X93626677Y-106479853D01*
X93574560Y-106451996D01*
X93518010Y-106434841D01*
X93459200Y-106429049D01*
X92459200Y-106429049D01*
X92400390Y-106434841D01*
X92343840Y-106451996D01*
X92291723Y-106479853D01*
X92246042Y-106517342D01*
X92208553Y-106563023D01*
X92180696Y-106615140D01*
X92163541Y-106671690D01*
X92157749Y-106730500D01*
X92157749Y-107030500D01*
X92163541Y-107089310D01*
X92180696Y-107145860D01*
X92208553Y-107197977D01*
X92208572Y-107198000D01*
X92208553Y-107198023D01*
X92180696Y-107250140D01*
X92163541Y-107306690D01*
X92157749Y-107365500D01*
X92157749Y-107665500D01*
X92163541Y-107724310D01*
X92179070Y-107775500D01*
X91864197Y-107775500D01*
X91849839Y-107765906D01*
X91758845Y-107728215D01*
X91662246Y-107709000D01*
X91563754Y-107709000D01*
X91467155Y-107728215D01*
X91376161Y-107765906D01*
X91294269Y-107820625D01*
X91224625Y-107890269D01*
X91169906Y-107972161D01*
X91136599Y-108052570D01*
X90982395Y-107898366D01*
X90970648Y-107884052D01*
X90913547Y-107837191D01*
X90848400Y-107802369D01*
X90777713Y-107780926D01*
X90722619Y-107775500D01*
X90722616Y-107775500D01*
X90704200Y-107773686D01*
X90685784Y-107775500D01*
X87744930Y-107775500D01*
X87760459Y-107724310D01*
X87766251Y-107665500D01*
X87766251Y-107365500D01*
X87760459Y-107306690D01*
X87743304Y-107250140D01*
X87715447Y-107198023D01*
X87715428Y-107198000D01*
X87715447Y-107197977D01*
X87743304Y-107145860D01*
X87760459Y-107089310D01*
X87766251Y-107030500D01*
X87766251Y-106730500D01*
X87760459Y-106671690D01*
X87743304Y-106615140D01*
X87715447Y-106563023D01*
X87677958Y-106517342D01*
X87632277Y-106479853D01*
X87580160Y-106451996D01*
X87523610Y-106434841D01*
X87464800Y-106429049D01*
X87309055Y-106429049D01*
X87293528Y-106400000D01*
X98690337Y-106400000D01*
X98689549Y-106408000D01*
G04 #@! TA.AperFunction,Conductor*
D26*
G36*
X98689549Y-106408000D02*
G01*
X98689549Y-106688670D01*
X98676977Y-106678353D01*
X98624860Y-106650496D01*
X98568310Y-106633341D01*
X98509500Y-106627549D01*
X97909500Y-106627549D01*
X97850690Y-106633341D01*
X97794140Y-106650496D01*
X97742023Y-106678353D01*
X97701500Y-106711609D01*
X97660977Y-106678353D01*
X97608860Y-106650496D01*
X97552310Y-106633341D01*
X97493500Y-106627549D01*
X96893500Y-106627549D01*
X96834690Y-106633341D01*
X96778140Y-106650496D01*
X96726023Y-106678353D01*
X96680342Y-106715842D01*
X96649027Y-106754000D01*
X96521416Y-106754000D01*
X96503000Y-106752186D01*
X96484584Y-106754000D01*
X96484581Y-106754000D01*
X96429487Y-106759426D01*
X96358800Y-106780869D01*
X96342005Y-106789846D01*
X96293653Y-106815690D01*
X96265487Y-106838806D01*
X96236552Y-106862552D01*
X96224809Y-106876861D01*
X95961171Y-107140500D01*
X93739330Y-107140500D01*
X93754859Y-107089310D01*
X93760651Y-107030500D01*
X93760651Y-106730500D01*
X93754859Y-106671690D01*
X93737704Y-106615140D01*
X93709847Y-106563023D01*
X93672358Y-106517342D01*
X93626677Y-106479853D01*
X93574560Y-106451996D01*
X93518010Y-106434841D01*
X93459200Y-106429049D01*
X92459200Y-106429049D01*
X92400390Y-106434841D01*
X92343840Y-106451996D01*
X92291723Y-106479853D01*
X92246042Y-106517342D01*
X92208553Y-106563023D01*
X92180696Y-106615140D01*
X92163541Y-106671690D01*
X92157749Y-106730500D01*
X92157749Y-107030500D01*
X92163541Y-107089310D01*
X92180696Y-107145860D01*
X92208553Y-107197977D01*
X92208572Y-107198000D01*
X92208553Y-107198023D01*
X92180696Y-107250140D01*
X92163541Y-107306690D01*
X92157749Y-107365500D01*
X92157749Y-107665500D01*
X92163541Y-107724310D01*
X92179070Y-107775500D01*
X91864197Y-107775500D01*
X91849839Y-107765906D01*
X91758845Y-107728215D01*
X91662246Y-107709000D01*
X91563754Y-107709000D01*
X91467155Y-107728215D01*
X91376161Y-107765906D01*
X91294269Y-107820625D01*
X91224625Y-107890269D01*
X91169906Y-107972161D01*
X91136599Y-108052570D01*
X90982395Y-107898366D01*
X90970648Y-107884052D01*
X90913547Y-107837191D01*
X90848400Y-107802369D01*
X90777713Y-107780926D01*
X90722619Y-107775500D01*
X90722616Y-107775500D01*
X90704200Y-107773686D01*
X90685784Y-107775500D01*
X87744930Y-107775500D01*
X87760459Y-107724310D01*
X87766251Y-107665500D01*
X87766251Y-107365500D01*
X87760459Y-107306690D01*
X87743304Y-107250140D01*
X87715447Y-107198023D01*
X87715428Y-107198000D01*
X87715447Y-107197977D01*
X87743304Y-107145860D01*
X87760459Y-107089310D01*
X87766251Y-107030500D01*
X87766251Y-106730500D01*
X87760459Y-106671690D01*
X87743304Y-106615140D01*
X87715447Y-106563023D01*
X87677958Y-106517342D01*
X87632277Y-106479853D01*
X87580160Y-106451996D01*
X87523610Y-106434841D01*
X87464800Y-106429049D01*
X87309055Y-106429049D01*
X87293528Y-106400000D01*
X98690337Y-106400000D01*
X98689549Y-106408000D01*
G37*
G04 #@! TD.AperFunction*
M02*
